<?xml version="1.0" encoding="UTF-8" standalone="no"?>
<!-- Created with Inkscape (http://www.inkscape.org/) -->

<svg
   xmlns:dc="http://purl.org/dc/elements/1.1/"
   xmlns:cc="http://creativecommons.org/ns#"
   xmlns:rdf="http://www.w3.org/1999/02/22-rdf-syntax-ns#"
   xmlns:svg="http://www.w3.org/2000/svg"
   xmlns="http://www.w3.org/2000/svg"
   xmlns:sodipodi="http://sodipodi.sourceforge.net/DTD/sodipodi-0.dtd"
   xmlns:inkscape="http://www.inkscape.org/namespaces/inkscape"
   id="svg2985"
   version="1.1"
   inkscape:version="0.48.5 r10040"
   width="1620"
   height="990"
   xml:space="preserve"
   sodipodi:docname="Bottom_Piece.pdf"><metadata
     id="metadata2991"><rdf:RDF><cc:Work
         rdf:about=""><dc:format>image/svg+xml</dc:format><dc:type
           rdf:resource="http://purl.org/dc/dcmitype/StillImage" /><dc:title></dc:title></cc:Work></rdf:RDF></metadata><defs
     id="defs2989"><clipPath
       clipPathUnits="userSpaceOnUse"
       id="clipPath3001"><path
         d="m 480,421 3838,0 0,5038 -3838,0 0,-5038"
         id="path3003"
         inkscape:connector-curvature="0" /></clipPath><clipPath
       clipPathUnits="userSpaceOnUse"
       id="clipPath3035"><path
         d="m 0,0 4826,0 0,6090 L 0,6090 0,0"
         id="path3037"
         inkscape:connector-curvature="0" /></clipPath><clipPath
       id="clipPath3170"
       clipPathUnits="userSpaceOnUse"><path
         id="path3172"
         d="m 0,0 4826,0 0,6090 L 0,6090 0,0" /></clipPath><clipPath
       id="clipPath3144"
       clipPathUnits="userSpaceOnUse"><path
         id="path3146"
         d="m 480,421 3838,0 0,5038 -3838,0 0,-5038" /></clipPath></defs><sodipodi:namedview
     pagecolor="#ffffff"
     bordercolor="#666666"
     borderopacity="1"
     objecttolerance="10"
     gridtolerance="10000"
     guidetolerance="10"
     inkscape:pageopacity="0"
     inkscape:pageshadow="2"
     inkscape:window-width="1366"
     inkscape:window-height="705"
     id="namedview2987"
     showgrid="true"
     units="in"
     inkscape:zoom="1.2339869"
     inkscape:cx="270.82775"
     inkscape:cy="986.154"
     inkscape:window-x="-8"
     inkscape:window-y="-8"
     inkscape:window-maximized="1"
     inkscape:current-layer="g2993"><inkscape:grid
       type="xygrid"
       id="grid3041"
       units="in"
       empspacing="4"
       visible="true"
       enabled="true"
       snapvisiblegridlinesonly="true"
       dotted="false"
       spacingx="0.125in"
       spacingy="0.125in" /></sodipodi:namedview><g
     id="g2993"
     inkscape:groupmode="layer"
     inkscape:label="Bottom_Piece"
     transform="matrix(0,-1.25,-1.25,0,990,990)"><path
       style="fill:none;stroke:#ff0000;stroke-width:0.52054095;stroke-linecap:round;stroke-linejoin:round;stroke-miterlimit:10;stroke-opacity:1;stroke-dasharray:none"
       d="m 783.30509,764.35169 -8.975,0 0,9 -0.025,0 0,9 -9,0 0,-9 -9,0 0,9 -9,0 0,-9 -9,0 0,9 -9,0 0,-9 -9,0 0,9 -9,0 0,-9 -9,0 0,9 -9,0 0,-9 -9,0 0,9 -9,0 0,-9 -9,0 0,9 -9,0 0,-9 -9,0 0,9 -9,0 0,-9 -9,0 0,9 -9,0 0,-9 -9,0 0,9 -9,0 0,-9 -9,0 -9,0 0,-9 9,0 0,-9 -9,0 0,-9 9,0 0,-9 -9,0 0,-9 9,0 0,-9 -9,0 0,-9 9,0 0,-9 -9,0 0,-9 9,0 0,-9 -9,0 0,-9 9,0 0,-9 -9,0 0,-9 9,0 0,-9 -9,0 0,-9 9,0 0,-9 -9,0 0,-9 9,0 0,-9 -9,0 0,-9 9,0 0,-9 -9,0 0,-9 9,0 0,-9 -9,0 0,-9 9,0 0,-9 0,-9 9,0 0,9 9,0 0,-9 9,0 0,9 9,0 0,-9 9,0 0,9 9,0 0,-9 9,0 0,9 9,0 0,-9 9,0 0,9 9,0 0,-9 9,0 0,9 9,0 0,-9 9,0 0,9 9,0 0,-9 9,0 0,9 9,0 0,-9 9,0 0,9 9,0 0,-9 9,0 0,9 9,0 9,0 0,9 -9,0 0,9 9,0 0,9 -9,0 0,9 9,0 0,9 -9,0 0,9 9,0 0,9 -9,0 0,9 9,0 0,9 -9,0 0,9 9,0 0,9 -9,0 0,9 9,0 0,9 -8.975,0 0,9 8.975,0 0,9 -8.975,0 0,9 8.975,0 0,9 -8.975,0 0,9 8.975,0 0,9 -8.975,0 0,9 8.975,0 0,9 -8.975,0 0,9 8.975,0 0,9 z"
       id="path3015"
       inkscape:connector-curvature="0" /><path
       inkscape:connector-curvature="0"
       style="fill:none;stroke:#ff0000;stroke-width:0.52054095;stroke-linecap:round;stroke-linejoin:round;stroke-miterlimit:10;stroke-opacity:1;stroke-dasharray:none"
       d="m 594.30509,764.35169 -8.975,0 0,9 -0.025,0 0,9 -9,0 0,-9 -9,0 0,9 -9,0 0,-9 -9,0 0,9 -9,0 0,-9 -9,0 0,9 -9,0 0,-9 -9,0 0,9 -9,0 0,-9 -9,0 0,9 -9,0 0,-9 -9,0 0,9 -9,0 0,-9 -9,0 0,9 -9,0 0,-9 -9,0 0,9 -9,0 0,-9 -9,0 0,9 -9,0 0,-9 -9,0 -9,0 0,-9 9,0 0,-9 -9,0 0,-9 9,0 0,-9 -9,0 0,-9 9,0 0,-9 -9,0 0,-9 9,0 0,-9 -9,0 0,-9 9,0 0,-9 -9,0 0,-9 9,0 0,-9 -9,0 0,-9 9,0 0,-9 -9,0 0,-9 9,0 0,-9 -9,0 0,-9 9,0 0,-9 -9,0 0,-9 9,0 0,-9 -9,0 0,-9 9,0 0,-9 -9,0 0,-9 9,0 0,-9 0,-9 9,0 0,9 9,0 0,-9 9,0 0,9 9,0 0,-9 9,0 0,9 9,0 0,-9 9,0 0,9 9,0 0,-9 9,0 0,9 9,0 0,-9 9,0 0,9 9,0 0,-9 9,0 0,9 9,0 0,-9 9,0 0,9 9,0 0,-9 9,0 0,9 9,0 0,-9 9,0 0,9 9,0 9,0 0,9 -9,0 0,9 9,0 0,9 -9,0 0,9 9,0 0,9 -9,0 0,9 9,0 0,9 -9,0 0,9 9,0 0,9 -9,0 0,9 9,0 0,9 -9,0 0,9 9,0 0,9 -8.975,0 0,9 8.975,0 0,9 -8.975,0 0,9 8.975,0 0,9 -8.975,0 0,9 8.975,0 0,9 -8.975,0 0,9 8.975,0 0,9 -8.975,0 0,9 8.975,0 0,9 z"
       id="path3015-9" /><path
       style="fill:none;stroke:#ff0000;stroke-width:0.80000001;stroke-linecap:round;stroke-linejoin:round;stroke-miterlimit:4;stroke-opacity:1;stroke-dasharray:none"
       d="m 225.30509,566.35169 0,9 9,0 9,0 0,9 -9,0 0,9 9,0 0,9 -9,0 0,9 9,0 0,9 -9,0 0,9 9,0 0,9 -9,0 0,9 9,0 0,9 -9,0 0,9 9,0 0,9 -9,0 0,9 9,0 0,9 -9,0 0,9 9,0 0,9 -9,0 0,9 9,0 0,9 -9,0 0,9 9,0 0,9 -9,0 0,9 0,9 -9,0 0,-9 -9,0 0,9 -9,0 0,-9 -9,0 0,9 -9,0 0,-9 -9,0 0,9 -9,0 0,-9 -9,0 -9,0 0,-9 9,0 0,-9 -9,0 0,-9 9,0 0,-9 -9,0 0,-9 9,0 0,-9 -9,0 0,-9 9,0 0,-9 -9,0 0,-9 9,0 0,-9 -9,0 0,-9 9,0 0,-9 -9,0 0,-9 9,0 0,-9 -9,0 0,-9 9,0 0,-9 -9,0 0,-9 9,0 0,-9 -9,0 0,-9 9,0 0,-9 0,-9 9,0 0,9 9,0 0,-9 9,0 0,9 9,0 0,-9 9,0 0,9 9,0 0,-9 9,0 z"
       id="rect4383"
       inkscape:connector-curvature="0" /><path
       inkscape:connector-curvature="0"
       style="fill:none;stroke:#ff0000;stroke-width:0.80000001;stroke-linecap:round;stroke-linejoin:round;stroke-miterlimit:4;stroke-opacity:1;stroke-dasharray:none"
       d="m 144.30509,566.35169 0,9 9,0 9,0 0,9 -9,0 0,9 9,0 0,9 -9,0 0,9 9,0 0,9 -9,0 0,9 9,0 0,9 -9,0 0,9 9,0 0,9 -9,0 0,9 9,0 0,9 -9,0 0,9 9,0 0,9 -9,0 0,9 9,0 0,9 -9,0 0,9 9,0 0,9 -9,0 0,9 9,0 0,9 -9,0 0,9 0,9 -9,0 0,-9 -9,0 0,9 -9,0 0,-9 -9,0 0,9 -9,0 0,-9 -9.000005,0 0,9 -9,0 0,-9 -9,0 -9,0 0,-9 9,0 0,-9 -9,0 0,-9 9,0 0,-9 -9,0 0,-9 9,0 0,-9 -9,0 0,-9 9,0 0,-9 -9,0 0,-9 9,0 0,-9 -9,0 0,-9 9,0 0,-9 -9,0 0,-9 9,0 0,-9 -9,0 0,-9 9,0 0,-9 -9,0 0,-9 9,0 0,-9 -9,0 0,-9 9,0 0,-9 0,-9 9,0 0,9 9,0 0,-9 9.000005,0 0,9 9,0 0,-9 9,0 0,9 9,0 0,-9 9,0 z"
       id="rect4383-4" /><path
       style="fill:none;stroke:#ff0000;stroke-width:0.80000001;stroke-linecap:round;stroke-linejoin:round;stroke-miterlimit:4;stroke-opacity:1;stroke-dasharray:none"
       d="m 405.30509,764.35169 -9,0 0,9 0,9 -9,0 0,-9 -9,0 0,9 -9,0 0,-9 -9,0 0,9 -9,0 0,-9 -9,0 0,9 -9,0 0,-9 -9,0 -9,0 0,-9 9,0 0,-9 -9,0 0,-9 9,0 0,-9 -9,0 0,-9 9,0 0,-9 -9,0 0,-9 9,0 0,-9 -9,0 0,-9 9,0 0,-9 -9,0 0,-9 9,0 0,-9 -9,0 0,-9 9,0 0,-9 -9,0 0,-9 9,0 0,-9 -9,0 0,-9 9,0 0,-9 -9,0 0,-9 9,0 0,-9 -9,0 0,-9 9,0 0,-9 -9,0 0,-9 9,0 0,-9 0,-9 9,0 0,9 9,0 0,-9 9,0 0,9 9,0 0,-9 9,0 0,9 9,0 0,-9 9,0 0,9 9,0 9,0 0,9 -9,0 0,9 9,0 0,9 -9,0 0,9 9,0 0,9 -9,0 0,9 9,0 0,9 -9,0 0,9 9,0 0,9 -9,0 0,9 9,0 0,9 -9,0 0,9 9,0 0,9 -9,0 0,9 9,0 0,9 -9,0 0,9 9,0 0,9 -9,0 0,9 9,0 0,9 -9,0 0,9 9,0 0,9 -9,0 0,9 9,0 0,9 z"
       id="rect4630"
       inkscape:connector-curvature="0" /><path
       inkscape:connector-curvature="0"
       style="fill:none;stroke:#ff0000;stroke-width:0.80000001;stroke-linecap:round;stroke-linejoin:round;stroke-miterlimit:4;stroke-opacity:1;stroke-dasharray:none"
       d="m 324.30509,764.35169 -9,0 0,9 0,9 -9,0 0,-9 -9,0 0,9 -9,0 0,-9 -9,0 0,9 -9,0 0,-9 -9,0 0,9 -9,0 0,-9 -9,0 -9,0 0,-9 9,0 0,-9 -9,0 0,-9 9,0 0,-9 -9,0 0,-9 9,0 0,-9 -9,0 0,-9 9,0 0,-9 -9,0 0,-9 9,0 0,-9 9,0 0,-9 0,-9 0,-9 0,0 0,-9 0,-9 0,0 0,0 0,-9 0,-9 0,-9 0,-9 0,-9 -9,0 0,0 -9,0 0,0 0,0 0,0 0,0 0,-9 9,0 0,-9 -9,0 0,-9 9,0 0,-9 0,-9 9,0 0,9 9,0 0,-9 9,0 0,9 9,0 0,-9 9,0 0,9 9,0 0,-9 9,0 0,9 9,0 9,0 0,9 -9,0 0,9 9,0 0,9 -9,0 0,9 9,0 0,9 -9,0 0,9 9,0 0,9 -9,0 0,9 9,0 0,9 -9,0 0,9 9,0 0,9 -9,0 0,9 9,0 0,9 -9,0 0,9 9,0 0,9 -9,0 0,9 9,0 0,9 -9,0 0,9 9,0 0,9 -9,0 0,9 9,0 0,9 -9,0 0,9 9,0 z"
       id="rect4630-6"
       sodipodi:nodetypes="ccccccccccccccccccccccccccccccccccccccccccccccccccccccccccccccccccccccccccccccccccccccccccccccccccccccccccccccccccccccccccccccccc" /></g></svg>