<?xml version="1.0" encoding="UTF-8" standalone="no"?>
<!-- Created with Inkscape (http://www.inkscape.org/) -->

<svg
   xmlns:dc="http://purl.org/dc/elements/1.1/"
   xmlns:cc="http://creativecommons.org/ns#"
   xmlns:rdf="http://www.w3.org/1999/02/22-rdf-syntax-ns#"
   xmlns:svg="http://www.w3.org/2000/svg"
   xmlns="http://www.w3.org/2000/svg"
   xmlns:sodipodi="http://sodipodi.sourceforge.net/DTD/sodipodi-0.dtd"
   xmlns:inkscape="http://www.inkscape.org/namespaces/inkscape"
   id="svg2985"
   version="1.1"
   inkscape:version="0.48.5 r10040"
   width="1620"
   height="990"
   xml:space="preserve"
   sodipodi:docname="Display_Rev2.svg"><metadata
     id="metadata2991"><rdf:RDF><cc:Work
         rdf:about=""><dc:format>image/svg+xml</dc:format><dc:type
           rdf:resource="http://purl.org/dc/dcmitype/StillImage" /><dc:title /></cc:Work></rdf:RDF></metadata><defs
     id="defs2989"><clipPath
       clipPathUnits="userSpaceOnUse"
       id="clipPath3001"><path
         d="m 480,421 3838,0 0,5038 -3838,0 0,-5038"
         id="path3003"
         inkscape:connector-curvature="0" /></clipPath><clipPath
       clipPathUnits="userSpaceOnUse"
       id="clipPath3035"><path
         d="m 0,0 4826,0 0,6090 L 0,6090 0,0"
         id="path3037"
         inkscape:connector-curvature="0" /></clipPath><clipPath
       id="clipPath3170"
       clipPathUnits="userSpaceOnUse"><path
         id="path3172"
         d="m 0,0 4826,0 0,6090 L 0,6090 0,0" /></clipPath><clipPath
       id="clipPath3144"
       clipPathUnits="userSpaceOnUse"><path
         id="path3146"
         d="m 480,421 3838,0 0,5038 -3838,0 0,-5038" /></clipPath></defs><sodipodi:namedview
     pagecolor="#ffffff"
     bordercolor="#666666"
     borderopacity="1"
     objecttolerance="10"
     gridtolerance="10000"
     guidetolerance="10"
     inkscape:pageopacity="0"
     inkscape:pageshadow="2"
     inkscape:window-width="1366"
     inkscape:window-height="705"
     id="namedview2987"
     showgrid="true"
     units="in"
     inkscape:zoom="0.61699345"
     inkscape:cx="692.94651"
     inkscape:cy="619.81162"
     inkscape:window-x="-8"
     inkscape:window-y="-8"
     inkscape:window-maximized="1"
     inkscape:current-layer="g2993"
     showguides="true"
     inkscape:guide-bbox="true"
     inkscape:document-units="in"><inkscape:grid
       type="xygrid"
       id="grid3041"
       units="in"
       empspacing="4"
       visible="true"
       enabled="true"
       snapvisiblegridlinesonly="true"
       dotted="false"
       spacingx="0.125in"
       spacingy="0.125in" /><sodipodi:guide
       orientation="0,1"
       position="405,1019.4598"
       id="guide3815" /></sodipodi:namedview><g
     id="g2993"
     inkscape:groupmode="layer"
     inkscape:label="Bottom_Piece"
     transform="matrix(0,-1.25,-1.25,0,990,990)"><path
       style="fill:none;stroke:#ff0000;stroke-width:0.52080000000000004;stroke-linecap:butt;stroke-linejoin:miter;stroke-miterlimit:6;stroke-opacity:1;stroke-dasharray:none"
       d="m 783,765 -8.975,0 0,9 -0.025,0 0,9 -9,0 0,-9 -9,0 0,9 -9,0 0,-9 -9,0 0,9 -9,0 0,-9 -9,0 0,9 -9,0 0,-9 -9,0 0,9 -9,0 0,-9 -9,0 0,9 -9,0 0,-9 -9,0 0,9 -9,0 0,-9 -9,0 0,9 -9,0 0,-9 -9,0 0,9 -9,0 0,-9 -9,0 0,9 -9,0 0,-9 -9,0 -9,0 0,-9 9,0 0,-9 -9,0 0,-9 9,0 0,-9 -9,0 0,-9 9,0 0,-9 -9,0 0,-9 9,0 0,-9 -9,0 0,-9 9,0 0,-9 -9,0 0,-9 9,0 0,-9 -9,0 0,-9 9,0 0,-9 -9,0 0,-9 9,0 0,-9 -9,0 0,-9 9,0 0,-9 -9,0 0,-9 9,0 0,-9 -9,0 0,-9 9,0 0,-9 -9,0 0,-9 9,0 0,-9 0,-9 9,0 0,9 9,0 0,-9 9,0 0,9 9,0 0,-9 9,0 0,9 9,0 0,-9 9,0 0,9 9,0 0,-9 9,0 0,9 9,0 0,-9 9,0 0,9 9,0 0,-9 9,0 0,9 9,0 0,-9 9,0 0,9 9,0 0,-9 9,0 0,9 9,0 0,-9 9,0 0,9 9,0 9,0 0,9 -9,0 0,9 9,0 0,9 -9,0 0,9 9,0 0,9 -9,0 0,9 9,0 0,9 -9,0 0,9 9,0 0,9 -9,0 0,9 9,0 0,9 -9,0 0,9 9,0 0,9 -8.975,0 0,9 8.975,0 0,9 -8.975,0 0,9 8.975,0 0,9 -8.975,0 0,9 8.975,0 0,9 -8.975,0 0,9 8.975,0 0,9 -8.975,0 0,9 8.975,0 0,9 z"
       id="path3015"
       inkscape:connector-curvature="0" /><path
       inkscape:connector-curvature="0"
       style="fill:none;stroke:#ff0000;stroke-width:0.52080000000000004;stroke-linecap:butt;stroke-linejoin:miter;stroke-miterlimit:6;stroke-opacity:1;stroke-dasharray:none"
       d="m 576,765 -8.975,0 0,9 -0.025,0 0,9 -9,0 0,-9 -9,0 0,9 -9,0 0,-9 -9,0 0,9 -9,0 0,-9 -9,0 0,9 -9,0 0,-9 -9,0 0,9 -9,0 0,-9 -9,0 0,9 -9,0 0,-9 -9,0 0,9 -9,0 0,-9 -9,0 0,9 -9,0 0,-9 -9,0 0,9 -9,0 0,-9 -9,0 0,9 -9,0 0,-9 -9,0 -9,0 0,-9 9,0 0,-9 -9,0 0,-9 9,0 0,-9 -9,0 0,-9 9,0 0,-9 -9,0 0,-9 9,0 0,-9 -9,0 0,-9 9,0 0,-9 -9,0 0,-9 9,0 0,-9 -9,0 0,-9 9,0 0,-9 -9,0 0,-9 9,0 0,-9 -9,0 0,-9 9,0 0,-9 -9,0 0,-9 9,0 0,-9 -9,0 0,-9 9,0 0,-9 -9,0 0,-9 9,0 0,-9 0,-9 9,0 0,9 9,0 0,-9 9,0 0,9 9,0 0,-9 9,0 0,9 9,0 0,-9 9,0 0,9 9,0 0,-9 9,0 0,9 9,0 0,-9 9,0 0,9 9,0 0,-9 9,0 0,9 9,0 0,-9 9,0 0,9 9,0 0,-9 9,0 0,9 9,0 0,-9 9,0 0,9 9,0 9,0 0,9 -9,0 0,9 9,0 0,9 -9,0 0,9 9,0 0,9 -9,0 0,9 9,0 0,9 -9,0 0,9 9,0 0,9 -9,0 0,9 9,0 0,9 -9,0 0,9 9,0 0,9 -8.975,0 0,9 8.975,0 0,9 -8.975,0 0,9 8.975,0 0,9 -8.975,0 0,9 8.975,0 0,9 -8.975,0 0,9 8.975,0 0,9 -8.975,0 0,9 8.975,0 0,9 z"
       id="path3015-9" /><path
       style="fill:none;stroke:#ff0000;stroke-width:0.52080000000000004;stroke-linecap:butt;stroke-linejoin:miter;stroke-miterlimit:6;stroke-opacity:1;stroke-dasharray:none"
       d="m 171,711 9,0 0,-9 0,-9 9,0 0,9 9,0 0,-9 9,0 0,9 9,0 0,-9 9,0 0,9 9,0 0,-9 9,0 0,9 9,0 0,-9 9,0 0,9 9,0 0,-9 9,0 0,9 9,0 0,-9 9,0 0,9 9,0 0,-9 9,0 0,9 9,0 0,-9 9,0 0,9 9,0 0,-9 9,0 0,9 9,0 9,0 0,9 -9,0 0,9 9,0 0,9 -9,0 0,9 9,0 0,9 -9,0 0,9 9,0 0,9 -9,0 0,9 0,9 -9,0 0,-9 -9,0 0,9 -9,0 0,-9 -9,0 0,9 -9,0 0,-9 -9,0 0,9 -9,0 0,-9 -9,0 0,9 -9,0 0,-9 -9,0 0,9 -9,0 0,-9 -9,0 0,9 -9,0 0,-9 -9,0 0,9 -9,0 0,-9 -9,0 0,9 -9,0 0,-9 -9,0 0,9 -9,0 0,-9 -9,0 -9,0 0,-9 9,0 0,-9 -9,0 0,-9 9,0 0,-9 -9,0 0,-9 9,0 0,-9 -9,0 0,-9 z"
       id="rect4383"
       inkscape:connector-curvature="0" /><path
       inkscape:connector-curvature="0"
       style="fill:none;stroke:#ff0000;stroke-width:0.52079999;stroke-linecap:butt;stroke-linejoin:miter;stroke-miterlimit:6;stroke-opacity:1;stroke-dasharray:none"
       d="m 171,612 9,0 0,-9 0,-9 9,0 0,9 9,0 0,-9 9,0 0,9 9,0 0,-9 9,0 0,9 9,0 0,-9 9,0 0,9 9,0 0,-9 9,0 0,9 9,0 0,-9 9,0 0,9 9,0 0,-9 9,0 0,9 9,0 0,-9 9,0 0,9 9,0 0,-9 9,0 0,9 9,0 0,-9 9,0 0,9 9,0 9,0 0,9 -9,0 0,9 9,0 0,9 -9,0 0,9 9,0 0,9 -9,0 0,9 9,0 0,9 -9,0 0,9 0,9 -9,0 0,-9 -9,0 0,9 -9,0 0,-9 -9,0 0,9 -9,0 0,-9 -9,0 0,9 -9,0 0,-9 -9,0 0,9 -9,0 0,-9 -9,0 0,9 -9,0 0,-9 -9,0 0,9 -9,0 0,-9 -9,0 0,9 -9,0 0,-9 -9,0 0,9 -9,0 0,-9 -9,0 0,9 -9,0 0,-9 -9,0 -9,0 0,-9 9,0 0,-9 -9,0 0,-9 9,0 0,-9 -9,0 0,-9 9,0 0,-9 -9,0 0,-9 z"
       id="rect4383-4" /><path
       style="fill:none;stroke:#ff0000;stroke-width:0.52079999;stroke-linecap:butt;stroke-linejoin:miter;stroke-miterlimit:6;stroke-opacity:1;stroke-dasharray:none"
       d="m 126,765 -9,0 0,9 0,9 -9,0 0,-9 -9,0 0,9 -9,0 0,-9 -9,0 0,9 -9,0 0,-9 -9,0 0,9 -9,0 0,-9 -9,0 -9,0 0,-9 9,0 0,-9 -9,0 0,-9 9,0 0,-9 -9,0 0,-9 9,0 0,-9 -9,0 0,-9 9,0 0,-9 -9,0 0,-9 9,0 0,-9 -9,0 0,-9 9,0 0,-9 -9,0 0,-9 9,0 0,-9 -9,0 0,-9 9,0 0,-9 -9,0 0,-9 9,0 0,-9 -9,0 0,-9 9,0 0,-9 -9,0 0,-9 9,0 0,-9 -9,0 0,-9 9,0 0,-9 0,-9 9,0 0,9 9,0 0,-9 9,0 0,9 9,0 0,-9 9,0 0,9 9,0 0,-9 9,0 0,9 9,0 9,0 0,9 -9,0 0,9 9,0 0,9 -9,0 0,9 9,0 0,9 -9,0 0,9 9,0 0,9 -9,0 0,9 9,0 0,9 -9,0 0,9 9,0 0,9 -9,0 0,9 9,0 0,9 -9,0 0,9 9,0 0,9 -9,0 0,9 9,0 0,9 -9,0 0,9 9,0 0,9 -9,0 0,9 9,0 0,9 -9,0 0,9 9,0 0,9 z"
       id="rect4630"
       inkscape:connector-curvature="0" /><path
       inkscape:connector-curvature="0"
       style="fill:none;stroke:#ff0000;stroke-width:0.52079999;stroke-linecap:butt;stroke-linejoin:miter;stroke-miterlimit:6;stroke-opacity:1;stroke-dasharray:none"
       d="m 153,585 0,-9 -9,0 -9,0 0,-9 9,0 0,-9 -9,0 0,-9 9,0 0,-9 -9,0 0,-9 9,0 0,-9 -9,0 0,-9 9,0 0,-9 0,-9 9,0 0,9 9,0 0,-9 9,0 0,9 9,0 0,-9 9,0 0,9 9,0 0,-9 9,0 0,9 9,0 0,-9 9,0 0,9 9,0 0,9 9,0 9,0 9,0 0,0 9,0 9,0 0,0 0,0 9,0 9,0 9,0 9,0 9,0 0,-9 0,0 0,-9 0,0 0,0 0,0 0,0 9,0 0,9 9,0 0,-9 9,0 0,9 9,0 9,0 0,9 -9,0 0,9 9,0 0,9 -9,0 0,9 9,0 0,9 -9,0 0,9 9,0 0,9 -9,0 0,9 0,9 -9,0 0,-9 -9,0 0,9 -9,0 0,-9 -9,0 0,9 -9,0 0,-9 -9,0 0,9 -9,0 0,-9 -9,0 0,9 -9,0 0,-9 -9,0 0,9 -9,0 0,-9 -9,0 0,9 -9,0 0,-9 -9,0 0,9 -9,0 0,-9 -9,0 0,9 -9,0 0,-9 -9,0 0,9 -9,0 0,-9 -9,0 0,9 -9,0 0,-9 -9,0 0,9 z"
       id="rect4630-6"
       sodipodi:nodetypes="ccccccccccccccccccccccccccccccccccccccccccccccccccccccccccccccccccccccccccccccccccccccccccccccccccccccccccccccccccccccccccccccccc" /><path
       style="fill:none;stroke:#ff0000;stroke-width:0.52079999;stroke-linecap:butt;stroke-linejoin:miter;stroke-miterlimit:6;stroke-opacity:1;stroke-dasharray:none"
       d="m 783,459 -8.975,0 0,9 -0.025,0 0,9 -9,0 0,-9 -9,0 0,9 -9,0 0,-9 -9,0 0,9 -9,0 0,-9 -9,0 0,9 -9,0 0,-9 -9,0 0,9 -9,0 0,-9 -9,0 0,9 -9,0 0,-9 -9,0 0,9 -9,0 0,-9 -9,0 0,9 -9,0 0,-9 -9,0 0,9 -9,0 0,-9 -9,0 0,9 -9,0 0,-9 -9,0 -9,0 0,-9 9,0 0,-9 -9,0 0,-9 9,0 0,-9 -9,0 0,-9 9,0 0,-9 -9,0 0,-9 9,0 0,-9 -9,0 0,-9 9,0 0,-9 -9,0 0,-9 9,0 0,-9 -9,0 0,-9 9,0 0,-9 -9,0 0,-9 9,0 0,-9 -9,0 0,-9 9,0 0,-9 -9,0 0,-9 9,0 0,-9 -9,0 0,-9 9,0 0,-9 -9,0 0,-9 9,0 0,-9 0,-9 9,0 0,9 9,0 0,-9 9,0 0,9 9,0 0,-9 9,0 0,9 9,0 0,-9 9,0 0,9 9,0 0,-9 9,0 0,9 9,0 0,-9 9,0 0,9 9,0 0,-9 9,0 0,9 9,0 0,-9 9,0 0,9 9,0 0,-9 9,0 0,9 9,0 0,-9 9,0 0,9 9,0 9,0 0,9 -9,0 0,9 9,0 0,9 -9,0 0,9 9,0 0,9 -9,0 0,9 9,0 0,9 -9,0 0,9 9,0 0,9 -9,0 0,9 9,0 0,9 -9,0 0,9 9,0 0,9 -8.975,0 0,9 8.975,0 0,9 -8.975,0 0,9 8.975,0 0,9 -8.975,0 0,9 8.975,0 0,9 -8.975,0 0,9 8.975,0 0,9 -8.975,0 0,9 8.975,0 0,9 z"
       id="path3015-1"
       inkscape:connector-curvature="0" /><path
       inkscape:connector-curvature="0"
       style="fill:none;stroke:#ff0000;stroke-width:0.52079999;stroke-linecap:butt;stroke-linejoin:miter;stroke-miterlimit:6;stroke-opacity:1;stroke-dasharray:none"
       d="m 576,459 -8.975,0 0,9 -0.025,0 0,9 -9,0 0,-9 -9,0 0,9 -9,0 0,-9 -9,0 0,9 -9,0 0,-9 -9,0 0,9 -9,0 0,-9 -9,0 0,9 -9,0 0,-9 -9,0 0,9 -9,0 0,-9 -9,0 0,9 -9,0 0,-9 -9,0 0,9 -9,0 0,-9 -9,0 0,9 -9,0 0,-9 -9,0 0,9 -9,0 0,-9 -9,0 -9,0 0,-9 9,0 0,-9 -9,0 0,-9 9,0 0,-9 -9,0 0,-9 9,0 0,-9 -9,0 0,-9 9,0 0,-9 -9,0 0,-9 9,0 0,-9 -9,0 0,-9 9,0 0,-9 -9,0 0,-9 9,0 0,-9 -9,0 0,-9 9,0 0,-9 -9,0 0,-9 9,0 0,-9 -9,0 0,-9 9,0 0,-9 -9,0 0,-9 9,0 0,-9 -9,0 0,-9 9,0 0,-9 0,-9 9,0 0,9 9,0 0,-9 9,0 0,9 9,0 0,-9 9,0 0,9 9,0 0,-9 9,0 0,9 9,0 0,-9 9,0 0,9 9,0 0,-9 9,0 0,9 9,0 0,-9 9,0 0,9 9,0 0,-9 9,0 0,9 9,0 0,-9 9,0 0,9 9,0 0,-9 9,0 0,9 9,0 9,0 0,9 -9,0 0,9 9,0 0,9 -9,0 0,9 9,0 0,9 -9,0 0,9 9,0 0,9 -9,0 0,9 9,0 0,9 -9,0 0,9 9,0 0,9 -9,0 0,9 9,0 0,9 -8.975,0 0,9 8.975,0 0,9 -8.975,0 0,9 8.975,0 0,9 -8.975,0 0,9 8.975,0 0,9 -8.975,0 0,9 8.975,0 0,9 -8.975,0 0,9 8.975,0 0,9 z"
       id="path3015-9-7" /><path
       style="fill:none;stroke:#ff0000;stroke-width:0.52079999;stroke-linecap:butt;stroke-linejoin:miter;stroke-miterlimit:6;stroke-opacity:1;stroke-dasharray:none"
       d="m 171,405 9,0 0,-9 0,-9 9,0 0,9 9,0 0,-9 9,0 0,9 9,0 0,-9 9,0 0,9 9,0 0,-9 9,0 0,9 9,0 0,-9 9,0 0,9 9,0 0,-9 9,0 0,9 9,0 0,-9 9,0 0,9 9,0 0,-9 9,0 0,9 9,0 0,-9 9,0 0,9 9,0 0,-9 9,0 0,9 9,0 9,0 0,9 -9,0 0,9 9,0 0,9 -9,0 0,9 9,0 0,9 -9,0 0,9 9,0 0,9 -9,0 0,9 0,9 -9,0 0,-9 -9,0 0,9 -9,0 0,-9 -9,0 0,9 -9,0 0,-9 -9,0 0,9 -9,0 0,-9 -9,0 0,9 -9,0 0,-9 -9,0 0,9 -9,0 0,-9 -9,0 0,9 -9,0 0,-9 -9,0 0,9 -9,0 0,-9 -9,0 0,9 -9,0 0,-9 -9,0 0,9 -9,0 0,-9 -9,0 -9,0 0,-9 9,0 0,-9 -9,0 0,-9 9,0 0,-9 -9,0 0,-9 9,0 0,-9 -9,0 0,-9 z"
       id="rect4383-40"
       inkscape:connector-curvature="0" /><path
       inkscape:connector-curvature="0"
       style="fill:none;stroke:#ff0000;stroke-width:0.52079999;stroke-linecap:butt;stroke-linejoin:miter;stroke-miterlimit:6;stroke-opacity:1;stroke-dasharray:none"
       d="m 171,306 9,0 0,-9 0,-9 9,0 0,9 9,0 0,-9 9,0 0,9 9,0 0,-9 9,0 0,9 9,0 0,-9 9,0 0,9 9,0 0,-9 9,0 0,9 9,0 0,-9 9,0 0,9 9,0 0,-9 9,0 0,9 9,0 0,-9 9,0 0,9 9,0 0,-9 9,0 0,9 9,0 0,-9 9,0 0,9 9,0 9,0 0,9 -9,0 0,9 9,0 0,9 -9,0 0,9 9,0 0,9 -9,0 0,9 9,0 0,9 -9,0 0,9 0,9 -9,0 0,-9 -9,0 0,9 -9,0 0,-9 -9,0 0,9 -9,0 0,-9 -9,0 0,9 -9,0 0,-9 -9,0 0,9 -9,0 0,-9 -9,0 0,9 -9,0 0,-9 -9,0 0,9 -9,0 0,-9 -9,0 0,9 -9,0 0,-9 -9,0 0,9 -9,0 0,-9 -9,0 0,9 -9,0 0,-9 -9,0 -9,0 0,-9 9,0 0,-9 -9,0 0,-9 9,0 0,-9 -9,0 0,-9 9,0 0,-9 -9,0 0,-9 z"
       id="rect4383-4-9" /><path
       style="fill:none;stroke:#ff0000;stroke-width:0.52079999;stroke-linecap:butt;stroke-linejoin:miter;stroke-miterlimit:6;stroke-opacity:1;stroke-dasharray:none"
       d="m 126,459 -9,0 0,9 0,9 -9,0 0,-9 -9,0 0,9 -9,0 0,-9 -9,0 0,9 -9,0 0,-9 -9,0 0,9 -9,0 0,-9 -9,0 -9,0 0,-9 9,0 0,-9 -9,0 0,-9 9,0 0,-9 -9,0 0,-9 9,0 0,-9 -9,0 0,-9 9,0 0,-9 -9,0 0,-9 9,0 0,-9 -9,0 0,-9 9,0 0,-9 -9,0 0,-9 9,0 0,-9 -9,0 0,-9 9,0 0,-9 -9,0 0,-9 9,0 0,-9 -9,0 0,-9 9,0 0,-9 -9,0 0,-9 9,0 0,-9 -9,0 0,-9 9,0 0,-9 0,-9 9,0 0,9 9,0 0,-9 9,0 0,9 9,0 0,-9 9,0 0,9 9,0 0,-9 9,0 0,9 9,0 9,0 0,9 -9,0 0,9 9,0 0,9 -9,0 0,9 9,0 0,9 -9,0 0,9 9,0 0,9 -9,0 0,9 9,0 0,9 -9,0 0,9 9,0 0,9 -9,0 0,9 9,0 0,9 -9,0 0,9 9,0 0,9 -9,0 0,9 9,0 0,9 -9,0 0,9 9,0 0,9 -9,0 0,9 9,0 0,9 -9,0 0,9 9,0 0,9 z"
       id="rect4630-4"
       inkscape:connector-curvature="0" /><path
       inkscape:connector-curvature="0"
       style="fill:none;stroke:#ff0000;stroke-width:0.52079999;stroke-linecap:butt;stroke-linejoin:miter;stroke-miterlimit:6;stroke-opacity:1;stroke-dasharray:none"
       d="m 153,279 0,-9 -9,0 -9,0 0,-9 9,0 0,-9 -9,0 0,-9 9,0 0,-9 -9,0 0,-9 9,0 0,-9 -9,0 0,-9 9,0 0,-9 0,-9 9,0 0,9 9,0 0,-9 9,0 0,9 9,0 0,-9 9,0 0,9 9,0 0,-9 9,0 0,9 9,0 0,-9 9,0 0,9 9,0 0,9 9,0 9,0 9,0 0,0 9,0 9,0 0,0 0,0 9,0 9,0 9,0 9,0 9,0 0,-9 0,0 0,-9 0,0 0,0 0,0 0,0 9,0 0,9 9,0 0,-9 9,0 0,9 9,0 9,0 0,9 -9,0 0,9 9,0 0,9 -9,0 0,9 9,0 0,9 -9,0 0,9 9,0 0,9 -9,0 0,9 0,9 -9,0 0,-9 -9,0 0,9 -9,0 0,-9 -9,0 0,9 -9,0 0,-9 -9,0 0,9 -9,0 0,-9 -9,0 0,9 -9,0 0,-9 -9,0 0,9 -9,0 0,-9 -9,0 0,9 -9,0 0,-9 -9,0 0,9 -9,0 0,-9 -9,0 0,9 -9,0 0,-9 -9,0 0,9 -9,0 0,-9 -9,0 0,9 -9,0 0,-9 -9,0 0,9 z"
       id="rect4630-6-8"
       sodipodi:nodetypes="ccccccccccccccccccccccccccccccccccccccccccccccccccccccccccccccccccccccccccccccccccccccccccccccccccccccccccccccccccccccccccccccccc" /><path
       style="fill:none;stroke:#ff0000;stroke-width:0.52079999;stroke-linecap:butt;stroke-linejoin:miter;stroke-miterlimit:6;stroke-opacity:1;stroke-dasharray:none"
       d="m 783,162 -8.975,0 0,9 -0.025,0 0,9 -9,0 0,-9 -9,0 0,9 -9,0 0,-9 -9,0 0,9 -9,0 0,-9 -9,0 0,9 -9,0 0,-9 -9,0 0,9 -9,0 0,-9 -9,0 0,9 -9,0 0,-9 -9,0 0,9 -9,0 0,-9 -9,0 0,9 -9,0 0,-9 -9,0 0,9 -9,0 0,-9 -9,0 0,9 -9,0 0,-9 -9,0 -9,0 0,-9 9,0 0,-9 -9,0 0,-9 9,0 0,-9 -9,0 0,-9 9,0 0,-9 -9,0 0,-9 9,0 0,-9 -9,0 0,-9 9,0 0,-9 -9,0 0,-9 9,0 0,-9 -9,0 0,-9 9,0 0,-9 -9,0 0,-9 9,0 0,-9 -9,0 0,-9 9,0 0,-9 -9,0 0,-9 9,0 0,-9 -9,0 0,-9 9,0 0,-9 -9,0 0,-9 9,0 0,-9 0,-9 9,0 0,9 9,0 0,-9 9,0 0,9 9,0 0,-9 9,0 0,9 9,0 0,-9 9,0 0,9 9,0 0,-9 9,0 0,9 9,0 0,-9 9,0 0,9 9,0 0,-9 9,0 0,9 9,0 0,-9 9,0 0,9 9,0 0,-9 9,0 0,9 9,0 0,-9 9,0 0,9 9,0 9,0 0,9 -9,0 0,9 9,0 0,9 -9,0 0,9 9,0 0,9 -9,0 0,9 9,0 0,9 -9,0 0,9 9,0 0,9 -9,0 0,9 9,0 0,9 -9,0 0,9 9,0 0,9 -8.975,0 0,9 8.975,0 0,9 -8.975,0 0,9 8.975,0 0,9 -8.975,0 0,9 8.975,0 0,9 -8.975,0 0,9 8.975,0 0,9 -8.975,0 0,9 8.975,0 0,9 z"
       id="path3015-8"
       inkscape:connector-curvature="0" /><path
       inkscape:connector-curvature="0"
       style="fill:none;stroke:#ff0000;stroke-width:0.52079999;stroke-linecap:butt;stroke-linejoin:miter;stroke-miterlimit:6;stroke-opacity:1;stroke-dasharray:none"
       d="m 576,162 -8.975,0 0,9 -0.025,0 0,9 -9,0 0,-9 -9,0 0,9 -9,0 0,-9 -9,0 0,9 -9,0 0,-9 -9,0 0,9 -9,0 0,-9 -9,0 0,9 -9,0 0,-9 -9,0 0,9 -9,0 0,-9 -9,0 0,9 -9,0 0,-9 -9,0 0,9 -9,0 0,-9 -9,0 0,9 -9,0 0,-9 -9,0 0,9 -9,0 0,-9 -9,0 -9,0 0,-9 9,0 0,-9 -9,0 0,-9 9,0 0,-9 -9,0 0,-9 9,0 0,-9 -9,0 0,-9 9,0 0,-9 -9,0 0,-9 9,0 0,-9 -9,0 0,-9 9,0 0,-9 -9,0 0,-9 9,0 0,-9 -9,0 0,-9 9,0 0,-9 -9,0 0,-9 9,0 0,-9 -9,0 0,-9 9,0 0,-9 -9,0 0,-9 9,0 0,-9 -9,0 0,-9 9,0 0,-9 0,-9 9,0 0,9 9,0 0,-9 9,0 0,9 9,0 0,-9 9,0 0,9 9,0 0,-9 9,0 0,9 9,0 0,-9 9,0 0,9 9,0 0,-9 9,0 0,9 9,0 0,-9 9,0 0,9 9,0 0,-9 9,0 0,9 9,0 0,-9 9,0 0,9 9,0 0,-9 9,0 0,9 9,0 9,0 0,9 -9,0 0,9 9,0 0,9 -9,0 0,9 9,0 0,9 -9,0 0,9 9,0 0,9 -9,0 0,9 9,0 0,9 -9,0 0,9 9,0 0,9 -9,0 0,9 9,0 0,9 -8.975,0 0,9 8.975,0 0,9 -8.975,0 0,9 8.975,0 0,9 -8.975,0 0,9 8.975,0 0,9 -8.975,0 0,9 8.975,0 0,9 -8.975,0 0,9 8.975,0 0,9 z"
       id="path3015-9-2" /><path
       style="fill:none;stroke:#ff0000;stroke-width:0.52079999;stroke-linecap:butt;stroke-linejoin:miter;stroke-miterlimit:6;stroke-opacity:1;stroke-dasharray:none"
       d="m 171,108 9,0 0,-9 0,-9 9,0 0,9 9,0 0,-9 9,0 0,9 9,0 0,-9 9,0 0,9 9,0 0,-9 9,0 0,9 9,0 0,-9 9,0 0,9 9,0 0,-9 9,0 0,9 9,0 0,-9 9,0 0,9 9,0 0,-9 9,0 0,9 9,0 0,-9 9,0 0,9 9,0 0,-9 9,0 0,9 9,0 9,0 0,9 -9,0 0,9 9,0 0,9 -9,0 0,9 9,0 0,9 -9,0 0,9 9,0 0,9 -9,0 0,9 0,9 -9,0 0,-9 -9,0 0,9 -9,0 0,-9 -9,0 0,9 -9,0 0,-9 -9,0 0,9 -9,0 0,-9 -9,0 0,9 -9,0 0,-9 -9,0 0,9 -9,0 0,-9 -9,0 0,9 -9,0 0,-9 -9,0 0,9 -9,0 0,-9 -9,0 0,9 -9,0 0,-9 -9,0 0,9 -9,0 0,-9 -9,0 -9,0 0,-9 9,0 0,-9 -9,0 0,-9 9,0 0,-9 -9,0 0,-9 9,0 0,-9 -9,0 0,-9 z"
       id="rect4383-45"
       inkscape:connector-curvature="0" /><path
       inkscape:connector-curvature="0"
       style="fill:none;stroke:#ff0000;stroke-width:0.52079999;stroke-linecap:butt;stroke-linejoin:miter;stroke-miterlimit:6;stroke-opacity:1;stroke-dasharray:none"
       d="m 171,9 9,0 0,-9 0,-9 9,0 0,9 9,0 0,-9 9,0 0,9 9,0 0,-9 9,0 0,9 9,0 0,-9 9,0 0,9 9,0 0,-9 9,0 0,9 9,0 0,-9 9,0 0,9 9,0 0,-9 9,0 0,9 9,0 0,-9 9,0 0,9 9,0 0,-9 9,0 0,9 9,0 0,-9 9,0 0,9 9,0 9,0 0,9 -9,0 0,9 9,0 0,9 -9,0 0,9 9,0 0,9 -9,0 0,9 9,0 0,9 -9,0 0,9 0,9 -9,0 0,-9 -9,0 0,9 -9,0 0,-9 -9,0 0,9 -9,0 0,-9 -9,0 0,9 -9,0 0,-9 -9,0 0,9 -9,0 0,-9 -9,0 0,9 -9,0 0,-9 -9,0 0,9 -9,0 0,-9 -9,0 0,9 -9,0 0,-9 -9,0 0,9 -9,0 0,-9 -9,0 0,9 -9,0 0,-9 -9,0 -9,0 0,-9 9,0 0,-9 -9,0 0,-9 9,0 0,-9 -9,0 0,-9 9,0 0,-9 -9,0 0,-9 z"
       id="rect4383-4-5" /><path
       style="fill:none;stroke:#ff0000;stroke-width:0.52079999;stroke-linecap:butt;stroke-linejoin:miter;stroke-miterlimit:6;stroke-opacity:1;stroke-dasharray:none"
       d="m 126,162 -9,0 0,9 0,9 -9,0 0,-9 -9,0 0,9 -9,0 0,-9 -9,0 0,9 -9,0 0,-9 -9,0 0,9 -9,0 0,-9 -9,0 -9,0 0,-9 9,0 0,-9 -9,0 0,-9 9,0 0,-9 -9,0 0,-9 9,0 0,-9 -9,0 0,-9 9,0 0,-9 -9,0 0,-9 9,0 0,-9 -9,0 0,-9 9,0 0,-9 -9,0 0,-9 9,0 0,-9 -9,0 0,-9 9,0 0,-9 -9,0 0,-9 9,0 0,-9 -9,0 0,-9 9,0 0,-9 -9,0 0,-9 9,0 0,-9 -9,0 0,-9 9,0 0,-9 0,-9 9,0 0,9 9,0 0,-9 9,0 0,9 9,0 0,-9 9,0 0,9 9,0 0,-9 9,0 0,9 9,0 9,0 0,9 -9,0 0,9 9,0 0,9 -9,0 0,9 9,0 0,9 -9,0 0,9 9,0 0,9 -9,0 0,9 9,0 0,9 -9,0 0,9 9,0 0,9 -9,0 0,9 9,0 0,9 -9,0 0,9 9,0 0,9 -9,0 0,9 9,0 0,9 -9,0 0,9 9,0 0,9 -9,0 0,9 9,0 0,9 -9,0 0,9 9,0 0,9 z"
       id="rect4630-1"
       inkscape:connector-curvature="0" /><path
       inkscape:connector-curvature="0"
       style="fill:none;stroke:#ff0000;stroke-width:0.52079999;stroke-linecap:butt;stroke-linejoin:miter;stroke-miterlimit:6;stroke-opacity:1;stroke-dasharray:none"
       d="m 153,-18 0,-9 -9,0 -9,0 0,-9 9,0 0,-9 -9,0 0,-9 9,0 0,-9 -9,0 0,-9 9,0 0,-9 -9,0 0,-9 9,0 0,-9 0,-9 9,0 0,9 9,0 0,-9 9,0 0,9 9,0 0,-9 9,0 0,9 9,0 0,-9 9,0 0,9 9,0 0,-9 9,0 0,9 9,0 0,9 9,0 9,0 9,0 0,0 9,0 9,0 0,0 0,0 9,0 9,0 9,0 9,0 9,0 0,-9 0,0 0,-9 0,0 0,0 0,0 0,0 9,0 0,9 9,0 0,-9 9,0 0,9 9,0 9,0 0,9 -9,0 0,9 9,0 0,9 -9,0 0,9 9,0 0,9 -9,0 0,9 9,0 0,9 -9,0 0,9 0,9 -9,0 0,-9 -9,0 0,9 -9,0 0,-9 -9,0 0,9 -9,0 0,-9 -9,0 0,9 -9,0 0,-9 -9,0 0,9 -9,0 0,-9 -9,0 0,9 -9,0 0,-9 -9,0 0,9 -9,0 0,-9 -9,0 0,9 -9,0 0,-9 -9,0 0,9 -9,0 0,-9 -9,0 0,9 -9,0 0,-9 -9,0 0,9 -9,0 0,-9 -9,0 0,9 z"
       id="rect4630-6-7"
       sodipodi:nodetypes="ccccccccccccccccccccccccccccccccccccccccccccccccccccccccccccccccccccccccccccccccccccccccccccccccccccccccccccccccccccccccccccccccc" /></g></svg>