<?xml version="1.0" encoding="UTF-8" standalone="no"?>
<!-- Created with Inkscape (http://www.inkscape.org/) -->

<svg
   xmlns:dc="http://purl.org/dc/elements/1.1/"
   xmlns:cc="http://creativecommons.org/ns#"
   xmlns:rdf="http://www.w3.org/1999/02/22-rdf-syntax-ns#"
   xmlns:svg="http://www.w3.org/2000/svg"
   xmlns="http://www.w3.org/2000/svg"
   xmlns:sodipodi="http://sodipodi.sourceforge.net/DTD/sodipodi-0.dtd"
   xmlns:inkscape="http://www.inkscape.org/namespaces/inkscape"
   id="svg2985"
   version="1.1"
   inkscape:version="0.48.5 r10040"
   width="1620"
   height="990"
   xml:space="preserve"
   sodipodi:docname="Display_Dan.svg"><metadata
     id="metadata2991"><rdf:RDF><cc:Work
         rdf:about=""><dc:format>image/svg+xml</dc:format><dc:type
           rdf:resource="http://purl.org/dc/dcmitype/StillImage" /><dc:title /></cc:Work></rdf:RDF></metadata><defs
     id="defs2989"><clipPath
       clipPathUnits="userSpaceOnUse"
       id="clipPath3001"><path
         d="m 480,421 3838,0 0,5038 -3838,0 0,-5038"
         id="path3003"
         inkscape:connector-curvature="0" /></clipPath><clipPath
       clipPathUnits="userSpaceOnUse"
       id="clipPath3035"><path
         d="m 0,0 4826,0 0,6090 L 0,6090 0,0"
         id="path3037"
         inkscape:connector-curvature="0" /></clipPath><clipPath
       id="clipPath3170"
       clipPathUnits="userSpaceOnUse"><path
         id="path3172"
         d="m 0,0 4826,0 0,6090 L 0,6090 0,0" /></clipPath><clipPath
       id="clipPath3144"
       clipPathUnits="userSpaceOnUse"><path
         id="path3146"
         d="m 480,421 3838,0 0,5038 -3838,0 0,-5038" /></clipPath></defs><sodipodi:namedview
     pagecolor="#ffffff"
     bordercolor="#666666"
     borderopacity="1"
     objecttolerance="10"
     gridtolerance="10000"
     guidetolerance="10"
     inkscape:pageopacity="0"
     inkscape:pageshadow="2"
     inkscape:window-width="1366"
     inkscape:window-height="705"
     id="namedview2987"
     showgrid="true"
     units="in"
     inkscape:zoom="1.2339869"
     inkscape:cx="317.06305"
     inkscape:cy="821.23224"
     inkscape:window-x="-8"
     inkscape:window-y="-8"
     inkscape:window-maximized="1"
     inkscape:current-layer="g2993"
     showguides="true"
     inkscape:guide-bbox="true"
     inkscape:document-units="in"><inkscape:grid
       type="xygrid"
       id="grid3041"
       units="in"
       empspacing="4"
       visible="true"
       enabled="true"
       snapvisiblegridlinesonly="true"
       dotted="false"
       spacingx="0.125in"
       spacingy="0.125in" /><sodipodi:guide
       orientation="0,1"
       position="405,1019.4598"
       id="guide3815" /></sodipodi:namedview><g
     id="g2993"
     inkscape:groupmode="layer"
     inkscape:label="Bottom_Piece"
     transform="matrix(0,-1.25,-1.25,0,990,990)"><path
       style="fill:none;stroke:#ff0000;stroke-width:0.65100002;stroke-linecap:butt;stroke-linejoin:miter;stroke-miterlimit:6;stroke-opacity:1;stroke-dasharray:none"
       d="M 33.75 11.25 L 33.75 22.46875 L 22.5 22.46875 L 22.5 22.5 L 11.25 22.5 L 11.25 33.75 L 22.5 33.75 L 22.5 45 L 11.25 45 L 11.25 56.25 L 22.5 56.25 L 22.5 67.5 L 11.25 67.5 L 11.25 78.75 L 22.5 78.75 L 22.5 90 L 11.25 90 L 11.25 101.25 L 22.5 101.25 L 22.5 112.5 L 11.25 112.5 L 11.25 123.75 L 22.5 123.75 L 22.5 135 L 11.25 135 L 11.25 146.25 L 22.5 146.25 L 22.5 157.5 L 11.25 157.5 L 11.25 168.75 L 22.5 168.75 L 22.5 180 L 11.25 180 L 11.25 191.25 L 22.5 191.25 L 22.5 202.5 L 11.25 202.5 L 11.25 213.75 L 22.5 213.75 L 22.5 225 L 11.25 225 L 11.25 236.25 L 22.5 236.25 L 22.5 247.5 L 22.5 258.75 L 33.75 258.75 L 33.75 247.5 L 45 247.5 L 45 258.75 L 56.25 258.75 L 56.25 247.5 L 67.5 247.5 L 67.5 258.75 L 78.75 258.75 L 78.75 247.5 L 90 247.5 L 90 258.75 L 101.25 258.75 L 101.25 247.5 L 112.5 247.5 L 112.5 258.75 L 123.75 258.75 L 123.75 247.5 L 135 247.5 L 135 258.75 L 146.25 258.75 L 146.25 247.5 L 157.5 247.5 L 157.5 258.75 L 168.75 258.75 L 168.75 247.5 L 180 247.5 L 180 258.75 L 191.25 258.75 L 191.25 247.5 L 202.5 247.5 L 202.5 258.75 L 213.75 258.75 L 213.75 247.5 L 225 247.5 L 225 258.75 L 236.25 258.75 L 236.25 247.5 L 247.5 247.5 L 247.5 258.75 L 258.75 258.75 L 258.75 247.5 L 270 247.5 L 270 258.75 L 281.25 258.75 L 281.25 247.5 L 292.5 247.5 L 303.75 247.5 L 303.75 236.25 L 292.5 236.25 L 292.5 225 L 303.75 225 L 303.75 213.75 L 292.5 213.75 L 292.5 202.5 L 303.75 202.5 L 303.75 191.25 L 292.5 191.25 L 292.5 180 L 303.75 180 L 303.75 168.75 L 292.5 168.75 L 292.5 157.5 L 303.75 157.5 L 303.75 146.25 L 292.5 146.25 L 292.5 135 L 303.75 135 L 303.75 123.75 L 292.5 123.75 L 292.5 112.5 L 303.75 112.5 L 303.75 101.25 L 292.5 101.25 L 292.5 90 L 303.75 90 L 303.75 78.75 L 292.5 78.75 L 292.5 67.5 L 303.75 67.5 L 303.75 56.25 L 292.5 56.25 L 292.5 45 L 303.75 45 L 303.75 33.75 L 292.5 33.75 L 292.5 22.5 L 292.5 11.25 L 281.25 11.25 L 281.25 22.5 L 270 22.5 L 270 11.25 L 258.75 11.25 L 258.75 22.5 L 247.5 22.5 L 247.5 11.25 L 236.25 11.25 L 236.25 22.5 L 225 22.5 L 225 11.25 L 213.75 11.25 L 213.75 22.5 L 202.5 22.5 L 202.5 11.25 L 191.25 11.25 L 191.25 22.5 L 180 22.5 L 180 11.25 L 168.75 11.25 L 168.75 22.5 L 157.5 22.5 L 157.5 11.25 L 146.25 11.25 L 146.25 22.46875 L 135 22.46875 L 135 11.25 L 123.75 11.25 L 123.75 22.46875 L 112.5 22.46875 L 112.5 11.25 L 101.25 11.25 L 101.25 22.46875 L 90 22.46875 L 90 11.25 L 78.75 11.25 L 78.75 22.46875 L 67.5 22.46875 L 67.5 11.25 L 56.25 11.25 L 56.25 22.46875 L 45 22.46875 L 45 11.25 L 33.75 11.25 z M 157.5 202.5 L 225 202.5 L 225 213.75 L 157.5 213.75 L 157.5 202.5 z "
       transform="matrix(0,-0.8,-0.8,0,792,792)"
       id="path3015" /><path
       inkscape:connector-curvature="0"
       style="fill:none;stroke:#ff0000;stroke-width:0.5208;stroke-linecap:butt;stroke-linejoin:miter;stroke-miterlimit:6;stroke-opacity:1;stroke-dasharray:none"
       d="m 576,765 -8.975,0 0,9 -0.025,0 0,9 -9,0 0,-9 -9,0 0,9 -9,0 0,-9 -9,0 0,9 -9,0 0,-9 -9,0 0,9 -9,0 0,-9 -9,0 0,9 -9,0 0,-9 -9,0 0,9 -9,0 0,-9 -9,0 0,9 -9,0 0,-9 -9,0 0,9 -9,0 0,-9 -9,0 0,9 -9,0 0,-9 -9,0 0,9 -9,0 0,-9 -9,0 -9,0 0,-9 9,0 0,-9 -9,0 0,-9 9,0 0,-9 -9,0 0,-9 9,0 0,-9 -9,0 0,-9 9,0 0,-9 -9,0 0,-9 9,0 0,-9 -9,0 0,-9 9,0 0,-9 -9,0 0,-9 9,0 0,-9 -9,0 0,-9 9,0 0,-9 -9,0 0,-9 9,0 0,-9 -9,0 0,-9 9,0 0,-9 -9,0 0,-9 9,0 0,-9 -9,0 0,-9 9,0 0,-9 0,-9 9,0 0,9 9,0 0,-9 9,0 0,9 9,0 0,-9 9,0 0,9 9,0 0,-9 9,0 0,9 9,0 0,-9 9,0 0,9 9,0 0,-9 9,0 0,9 9,0 0,-9 9,0 0,9 9,0 0,-9 9,0 0,9 9,0 0,-9 9,0 0,9 9,0 0,-9 9,0 0,9 9,0 9,0 0,9 -9,0 0,9 9,0 0,9 -9,0 0,9 9,0 0,9 -9,0 0,9 9,0 0,9 -9,0 0,9 9,0 0,9 -9,0 0,9 9,0 0,9 -9,0 0,9 9,0 0,9 -8.975,0 0,9 8.975,0 0,9 -8.975,0 0,9 8.975,0 0,9 -8.975,0 0,9 8.975,0 0,9 -8.975,0 0,9 8.975,0 0,9 -8.975,0 0,9 8.975,0 0,9 z"
       id="path3015-9" /><path
       style="fill:none;stroke:#ff0000;stroke-width:0.5208;stroke-linecap:butt;stroke-linejoin:miter;stroke-miterlimit:6;stroke-opacity:1;stroke-dasharray:none"
       d="m 171,711 9,0 0,-9 0,-9 9,0 0,9 9,0 0,-9 9,0 0,9 9,0 0,-9 9,0 0,9 9,0 0,-9 9,0 0,9 9,0 0,-9 9,0 0,9 9,0 0,-9 9,0 0,9 9,0 0,-9 9,0 0,9 9,0 0,-9 9,0 0,9 9,0 0,-9 9,0 0,9 9,0 0,-9 9,0 0,9 9,0 9,0 0,9 -9,0 0,9 9,0 0,9 -9,0 0,9 9,0 0,9 -9,0 0,9 9,0 0,9 -9,0 0,9 0,9 -9,0 0,-9 -9,0 0,9 -9,0 0,-9 -9,0 0,9 -9,0 0,-9 -9,0 0,9 -9,0 0,-9 -9,0 0,9 -9,0 0,-9 -9,0 0,9 -9,0 0,-9 -9,0 0,9 -9,0 0,-9 -9,0 0,9 -9,0 0,-9 -9,0 0,9 -9,0 0,-9 -9,0 0,9 -9,0 0,-9 -9,0 -9,0 0,-9 9,0 0,-9 -9,0 0,-9 9,0 0,-9 -9,0 0,-9 9,0 0,-9 -9,0 0,-9 z"
       id="rect4383"
       inkscape:connector-curvature="0" /><path
       inkscape:connector-curvature="0"
       style="fill:none;stroke:#ff0000;stroke-width:0.5208;stroke-linecap:butt;stroke-linejoin:miter;stroke-miterlimit:6;stroke-opacity:1;stroke-dasharray:none"
       d="m 171,612 9,0 0,-9 0,-9 9,0 0,9 9,0 0,-9 9,0 0,9 9,0 0,-9 9,0 0,9 9,0 0,-9 9,0 0,9 9,0 0,-9 9,0 0,9 9,0 0,-9 9,0 0,9 9,0 0,-9 9,0 0,9 9,0 0,-9 9,0 0,9 9,0 0,-9 9,0 0,9 9,0 0,-9 9,0 0,9 9,0 9,0 0,9 -9,0 0,9 9,0 0,9 -9,0 0,9 9,0 0,9 -9,0 0,9 9,0 0,9 -9,0 0,9 0,9 -9,0 0,-9 -9,0 0,9 -9,0 0,-9 -9,0 0,9 -9,0 0,-9 -9,0 0,9 -9,0 0,-9 -9,0 0,9 -9,0 0,-9 -9,0 0,9 -9,0 0,-9 -9,0 0,9 -9,0 0,-9 -9,0 0,9 -9,0 0,-9 -9,0 0,9 -9,0 0,-9 -9,0 0,9 -9,0 0,-9 -9,0 -9,0 0,-9 9,0 0,-9 -9,0 0,-9 9,0 0,-9 -9,0 0,-9 9,0 0,-9 -9,0 0,-9 z"
       id="rect4383-4" /><path
       style="fill:none;stroke:#ff0000;stroke-width:0.52079999;stroke-linecap:butt;stroke-linejoin:miter;stroke-miterlimit:6;stroke-opacity:1;stroke-dasharray:none"
       d="m 513,450 0,9 9,0 9,0 0,9 -9,0 0,9 9,0 0,9 -9,0 0,9 9,0 0,9 -9,0 0,9 9,0 0,9 -9,0 0,9 0,9 -9,0 0,-9 -9,0 0,9 -9,0 0,-9 -9,0 0,9 -9,0 0,-9 -9,0 0,9 -9,0 0,-9 -9,0 0,9 -9,0 0,-9 -9,0 0,9 -9,0 0,-9 -9,0 0,9 -9,0 0,-9 -9,0 0,9 -9,0 0,-9 -9,0 0,9 -9,0 0,-9 -9,0 0,9 -9,0 0,-9 -9,0 0,9 -9,0 0,-9 -9,0 0,9 -9,0 0,-9 -9,0 -9,0 0,-9 9,0 0,-9 -9,0 0,-9 9,0 0,-9 -9,0 0,-9 9,0 0,-9 -9,0 0,-9 9,0 0,-9 0,-9 9,0 0,9 9,0 0,-9 9,0 0,9 9,0 0,-9 9,0 0,9 9,0 0,-9 9,0 0,9 9,0 0,-9 9,0 0,9 9,0 0,-9 9,0 0,9 9,0 0,-9 9,0 0,9 9,0 0,-9 9,0 0,9 9,0 0,-9 9,0 0,9 9,0 0,-9 9,0 0,9 9,0 0,-9 9,0 0,9 9,0 0,-9 9,0 z"
       id="rect4630-1"
       inkscape:connector-curvature="0" /><path
       inkscape:connector-curvature="0"
       style="fill:none;stroke:#ff0000;stroke-width:0.52079999;stroke-linecap:butt;stroke-linejoin:miter;stroke-miterlimit:6;stroke-opacity:1;stroke-dasharray:none"
       d="m 558,540 0,-9 -9,0 -9,0 0,-9 9,0 0,-9 -9,0 0,-9 9,0 0,-9 -9,0 0,-9 9,0 0,-9 -9,0 0,-9 9,0 0,-9 0,-9 9,0 0,9 9,0 0,-9 9,0 0,9 9,0 0,-9 9,0 0,9 9,0 0,-9 9,0 0,9 9,0 0,-9 9,0 0,9 9,0 0,-9 9,0 0,9 9,0 0,-9 9,0 0,9 9,0 0,-9 9,0 0,9 9,0 0,-9 9,0 0,9 9,0 0,-9 9,0 0,9 9,0 0,-9 9,0 0,9 9,0 0,-9 9,0 0,9 9,0 9,0 0,9 -9,0 0,9 9,0 0,9 -9,0 0,9 9,0 0,9 -9,0 0,9 9,0 0,9 -9,0 0,9 0,9 -9,0 0,-9 -9,0 0,9 -9,0 0,-9 -9,0 0,9 -9,0 0,-9 -9,0 0,9 -9,0 0,-9 -9,0 0,9 -9,0 0,-9 -9,0 0,9 -9,0 0,-9 -9,0 0,9 -9,0 0,-9 -9,0 0,9 -9,0 0,-9 -9,0 0,9 -9,0 0,-9 -9,0 0,9 -9,0 0,-9 -9,0 0,9 -9,0 0,-9 -9,0 0,9 z"
       id="rect4630-6-7"
       sodipodi:nodetypes="ccccccccccccccccccccccccccccccccccccccccccccccccccccccccccccccccccccccccccccccccccccccccccccccccccccccccccccccccccccccccccccccccc" /></g></svg>