<?xml version="1.0" encoding="UTF-8" standalone="no"?>
<!-- Created with Inkscape (http://www.inkscape.org/) -->

<svg
   xmlns:dc="http://purl.org/dc/elements/1.1/"
   xmlns:cc="http://creativecommons.org/ns#"
   xmlns:rdf="http://www.w3.org/1999/02/22-rdf-syntax-ns#"
   xmlns:svg="http://www.w3.org/2000/svg"
   xmlns="http://www.w3.org/2000/svg"
   xmlns:sodipodi="http://sodipodi.sourceforge.net/DTD/sodipodi-0.dtd"
   xmlns:inkscape="http://www.inkscape.org/namespaces/inkscape"
   width="1620"
   height="990"
   id="svg2"
   version="1.1"
   inkscape:version="0.48.5 r10040"
   sodipodi:docname="New document 1">
  <defs
     id="defs4" />
  <sodipodi:namedview
     id="base"
     pagecolor="#ffffff"
     bordercolor="#666666"
     borderopacity="1.0"
     inkscape:pageopacity="0.0"
     inkscape:pageshadow="2"
     inkscape:zoom="0.98994949"
     inkscape:cx="619.08155"
     inkscape:cy="540.01753"
     inkscape:document-units="px"
     inkscape:current-layer="layer1"
     showgrid="true"
     units="in"
     inkscape:window-width="1366"
     inkscape:window-height="705"
     inkscape:window-x="-8"
     inkscape:window-y="-8"
     inkscape:window-maximized="1">
    <inkscape:grid
       type="xygrid"
       id="grid2985"
       units="in"
       empspacing="5"
       visible="true"
       enabled="true"
       snapvisiblegridlinesonly="true"
       spacingx="0.125in"
       spacingy="0.125in" />
  </sodipodi:namedview>
  <metadata
     id="metadata7">
    <rdf:RDF>
      <cc:Work
         rdf:about="">
        <dc:format>image/svg+xml</dc:format>
        <dc:type
           rdf:resource="http://purl.org/dc/dcmitype/StillImage" />
        <dc:title></dc:title>
      </cc:Work>
    </rdf:RDF>
  </metadata>
  <g
     inkscape:label="Layer 1"
     inkscape:groupmode="layer"
     id="layer1"
     transform="translate(0,-62.35975)">
    <path
       style="fill:none;stroke:#ff0000;stroke-width:1.01693308;stroke-linecap:round;stroke-linejoin:round;stroke-miterlimit:4;stroke-opacity:1;stroke-dasharray:none"
       d="m 67.5,96.10975 0,11.25 -11.25,0 -11.25,0 0,11.25 11.25,0 0,11.25 -11.25,0 0,11.25 11.25,0 0,11.25 -11.25,0 0,11.25 11.25,0 0,11.25 -11.25,0 0,11.25 11.25,0 0,11.25 -11.25,0 0,11.25 11.25,0 0,11.25 -11.25,0 0,11.25 11.25,0 0,11.25 -11.25,0 0,11.25 11.25,0 0,11.25 -11.25,0 0,11.25 11.25,0 0,11.25 -11.25,0 0,11.25 11.25,0 0,11.25 -11.25,0 0,11.25 11.25,0 0,11.25 0,11.25 11.25,0 0,-11.25 11.25,0 0,11.25 11.25,0 0,-11.25 11.25,0 0,11.25 11.25,0 0,-11.25 11.25,0 0,11.25 11.25,0 0,-11.25 11.25,0 0,11.25 11.25,0 0,-11.25 11.25,0 0,11.25 11.25,0 0,-11.25 11.25,0 0,11.25 11.25,0 0,-11.25 11.25,0 0,11.25 11.25,0 0,-11.25 11.25,0 0,11.25 11.25,0 0,-11.25 11.25,0 0,11.25 11.25,0 0,-11.25 11.25,0 0,11.25 11.25,0 0,-11.25 11.25,0 0,11.25 11.25,0 0,-11.25 11.25,0 0,11.25 11.25,0 0,-11.25 11.25,0 0,11.25 11.25,0 0,-11.25 11.25,0 11.25,0 0,-11.25 -11.25,0 0,-11.25 11.25,0 0,-11.25 -11.25,0 0,-11.25 11.25,0 0,-11.25 -11.25,0 0,-11.25 11.25,0 0,-11.25 -11.25,0 0,-11.25 11.25,0 0,-11.25 -11.25,0 0,-11.25 11.25,0 0,-11.25 -11.25,0 0,-11.25 11.25,0 0,-11.25 -11.25,0 0,-11.25 11.25,0 0,-11.25 -11.25,0 0,-11.25 11.25,0 0,-11.25 -11.25,0 0,-11.25 11.25,0 0,-11.25 -11.25,0 0,-11.25 0,-11.25 -11.25,0 0,11.25 -11.25,0 0,-11.25 -11.25,0 0,11.25 -11.25,0 0,-11.25 -11.25,0 0,11.25 -11.25,0 0,-11.25 -11.25,0 0,11.25 -11.25,0 0,-11.25 -11.25,0 0,11.25 -11.25,0 0,-11.25 -11.25,0 0,11.25 -11.25,0 0,-11.25 -11.25,0 0,11.25 -11.25,0 0,-11.25 -11.25,0 0,11.25 -11.25,0 0,-11.25 -11.25,0 0,11.25 -11.25,0 0,-11.25 -11.25,0 0,11.25 -11.25,0 0,-11.25 -11.25,0 0,11.25 -11.25,0 0,-11.25 -11.25,0 0,11.25 -11.25,0 0,-11.25 -11.25,0 0,11.25 -11.25,0 0,-11.25 -11.25,0 z"
       id="rect2989"
       inkscape:connector-curvature="0" />
    <path
       style="fill:none;stroke:#ff0000;stroke-width:1;stroke-linecap:round;stroke-linejoin:round;stroke-miterlimit:4;stroke-opacity:1;stroke-dasharray:none"
       d="m 56.25,489.85975 0,11.25 11.25,0 0,11.25 -11.25,0 0,11.25 11.25,0 0,11.25 -11.25,0 0,11.25 11.25,0 0,11.25 -11.25,0 0,11.25 11.25,0 0,11.25 -11.25,0 0,11.25 11.25,0 0,11.25 0,11.25 11.25,0 0,-11.25 11.25,0 0,11.25 11.25,0 0,-11.25 11.25,0 0,11.25 11.25,0 0,-11.25 11.25,0 0,11.25 11.25,0 0,-11.25 11.25,0 0,11.25 11.25,0 0,-11.25 11.25,0 0,11.25 11.25,0 0,-11.25 11.25,0 0,11.25 11.25,0 0,-11.25 11.25,0 0,11.25 11.25,0 0,-11.25 11.25,0 0,11.25 11.25,0 0,-11.25 11.25,0 0,11.25 11.25,0 0,-11.25 11.25,0 0,11.25 11.25,0 0,-11.25 11.25,0 0,11.25 11.25,0 0,-11.25 11.25,0 0,11.25 11.25,0 0,-11.25 11.25,0 0,11.25 11.25,0 0,-11.25 11.25,0 11.25,0 0,-11.25 -11.25,0 0,-11.25 11.25,0 0,-11.25 -11.25,0 0,-11.25 11.25,0 0,-11.25 -11.25,0 0,-11.25 11.25,0 0,-11.25 -11.25,0 0,-11.25 11.25,0 0,-11.25 -11.25,0 0,-11.25 -315,0 -11.25,0 z"
       id="rect4531"
       inkscape:connector-curvature="0" />
    <path
       inkscape:connector-curvature="0"
       style="fill:none;stroke:#ff0000;stroke-width:1;stroke-linecap:round;stroke-linejoin:round;stroke-miterlimit:4;stroke-opacity:1;stroke-dasharray:none"
       d="m 45,354.85975 0,11.25 11.25,0 0,11.25 -11.25,0 0,11.25 11.25,0 0,11.25 -11.25,0 0,11.25 11.25,0 0,11.25 -11.25,0 0,11.25 11.25,0 0,11.25 -11.25,0 0,11.25 11.25,0 0,11.25 0,11.25 11.25,0 0,-11.25 11.25,0 0,11.25 11.25,0 0,-11.25 11.25,0 0,11.25 11.25,0 0,-11.25 11.25,0 0,11.25 11.25,0 0,-11.25 11.25,0 0,11.25 11.25,0 0,-11.25 11.25,0 0,11.25 11.25,0 0,-11.25 11.25,0 0,11.25 11.25,0 0,-11.25 11.25,0 0,11.25 11.25,0 0,-11.25 11.25,0 0,11.25 11.25,0 0,-11.25 11.25,0 0,11.25 11.25,0 0,-11.25 11.25,0 0,11.25 11.25,0 0,-11.25 11.25,0 0,11.25 11.25,0 0,-11.25 11.25,0 0,11.25 11.25,0 0,-11.25 11.25,0 0,11.25 11.25,0 0,-11.25 11.25,0 11.25,0 0,-11.25 -11.25,0 0,-11.25 11.25,0 0,-11.25 -11.25,0 0,-11.25 11.25,0 0,-11.25 -11.25,0 0,-11.25 11.25,0 0,-11.25 -11.25,0 0,-11.25 11.25,0 0,-11.25 -11.25,0 0,-11.25 -315,0 -11.25,0 z"
       id="rect4531-1" />
    <path
       style="fill:none;stroke:#ff0000;stroke-width:1;stroke-linecap:round;stroke-linejoin:round;stroke-miterlimit:4;stroke-opacity:1;stroke-dasharray:none"
       d="m 303.75,658.60975 -11.25,0 0,-11.25 0,-11.25 -11.25,0 0,11.25 -11.25,0 0,-11.25 -11.25,0 0,11.25 -11.25,0 0,-11.25 -11.25,0 0,11.25 -11.25,0 0,-11.25 -11.25,0 0,11.25 -11.25,0 0,-11.25 -11.25,0 0,11.25 -11.25,0 0,-11.25 -11.25,0 0,11.25 -11.25,0 0,-11.25 -11.25,0 0,11.25 -11.25,0 0,-11.25 -11.25,0 0,11.25 -11.25,0 0,-11.25 -11.25,0 0,11.25 -11.25,0 0,-11.25 -11.25,0 0,11.25 -11.25,0 -11.25,0 0,11.25 11.25,0 0,11.25 -11.25,0 0,11.25 11.25,0 0,11.25 -11.25,0 0,11.25 11.25,0 0,11.25 -11.25,0 0,11.25 11.25,0 0,11.25 -11.25,0 0,11.25 11.25,0 0,11.25 225,0 11.25,0 0,-11.25 -11.25,0 0,-11.25 11.25,0 0,-11.25 -11.25,0 0,-11.25 11.25,0 0,-11.25 -11.25,0 0,-11.25 11.25,0 0,-11.25 -11.25,0 0,-11.25 11.25,0 0,-11.25 z"
       id="rect4600"
       inkscape:connector-curvature="0" />
    <path
       inkscape:connector-curvature="0"
       style="fill:none;stroke:#ff0000;stroke-width:1;stroke-linecap:round;stroke-linejoin:round;stroke-miterlimit:4;stroke-opacity:1;stroke-dasharray:none"
       d="m 303.75,793.60975 -11.25,0 0,-11.25 0,-11.25 -11.25,0 0,11.25 -11.25,0 0,-11.25 -11.25,0 0,11.25 -11.25,0 0,-11.25 -11.25,0 0,11.25 -11.25,0 0,-11.25 -11.25,0 0,11.25 -11.25,0 0,-11.25 -11.25,0 0,11.25 -11.25,0 0,-11.25 -11.25,0 0,11.25 -11.25,0 0,-11.25 -11.25,0 0,11.25 -11.25,0 0,-11.25 -11.25,0 0,11.25 -11.25,0 0,-11.25 -11.25,0 0,11.25 -11.25,0 0,-11.25 -11.25,0 0,11.25 -11.25,0 -11.25,0 0,11.25 11.25,0 0,11.25 -11.25,0 0,11.25 11.25,0 0,11.25 -11.25,0 0,11.25 11.25,0 0,11.25 -11.25,0 0,11.25 11.25,0 0,11.25 -11.25,0 0,11.25 11.25,0 0,11.25 225,0 11.25,0 0,-11.25 -11.25,0 0,-11.25 11.25,0 0,-11.25 -11.25,0 0,-11.25 11.25,0 0,-11.25 -11.25,0 0,-11.25 11.25,0 0,-11.25 -11.25,0 0,-11.25 11.25,0 0,-11.25 z"
       id="rect4600-3" />
    <path
       inkscape:connector-curvature="0"
       style="fill:none;stroke:#ff0000;stroke-width:1;stroke-linecap:round;stroke-linejoin:round;stroke-miterlimit:4;stroke-opacity:1;stroke-dasharray:none"
       d="m 1338.75,118.60975 -11.25,0 0,-11.25 0,-11.25 -11.25,0 0,11.25 -11.25,0 0,-11.25 -11.25,0 0,11.25 -11.25,0 0,-11.25 -11.25,0 0,11.25 -11.25,0 0,-11.25 -11.25,0 0,11.25 -11.25,0 0,-11.25 -11.25,0 0,11.25 -11.25,0 0,-11.25 -11.25,0 0,11.25 -11.25,0 0,-11.25 -11.25,0 0,11.25 -11.25,0 0,-11.25 -11.25,0 0,11.25 -11.25,0 0,-11.25 -11.25,0 0,11.25 -11.25,0 0,-11.25 -11.25,0 0,11.25 -11.25,0 -11.25,0 0,11.25 11.25,0 0,11.25 -11.25,0 0,11.25 11.25,0 0,11.25 -11.25,0 0,11.25 11.25,0 0,11.25 -11.25,0 0,11.25 11.25,0 0,11.25 -11.25,0 0,11.25 11.25,0 0,11.25 225,0 11.25,0 0,-11.25 -11.25,0 0,-11.25 11.25,0 0,-11.25 -11.25,0 0,-11.25 11.25,0 0,-11.25 -11.25,0 0,-11.25 11.25,0 0,-11.25 -11.25,0 0,-11.25 11.25,0 0,-11.25 z"
       id="rect4600-3-5" />
    <path
       inkscape:connector-curvature="0"
       style="fill:none;stroke:#ff0000;stroke-width:1;stroke-linecap:round;stroke-linejoin:round;stroke-miterlimit:4;stroke-opacity:1;stroke-dasharray:none"
       d="m 1338.75,253.60975 -11.25,0 0,-11.25 0,-11.25 -11.25,0 0,11.25 -11.25,0 0,-11.25 -11.25,0 0,11.25 -11.25,0 0,-11.25 -11.25,0 0,11.25 -11.25,0 0,-11.25 -11.25,0 0,11.25 -11.25,0 0,-11.25 -11.25,0 0,11.25 -11.25,0 0,-11.25 -11.25,0 0,11.25 -11.25,0 0,-11.25 -11.25,0 0,11.25 -11.25,0 0,-11.25 -11.25,0 0,11.25 -11.25,0 0,-11.25 -11.25,0 0,11.25 -11.25,0 0,-11.25 -11.25,0 0,11.25 -11.25,0 -11.25,0 0,11.25 11.25,0 0,11.25 -11.25,0 0,11.25 11.25,0 0,11.25 -11.25,0 0,11.25 11.25,0 0,11.25 -11.25,0 0,11.25 11.25,0 0,11.25 -11.25,0 0,11.25 11.25,0 0,11.25 225,0 11.25,0 0,-11.25 -11.25,0 0,-11.25 11.25,0 0,-11.25 -11.25,0 0,-11.25 11.25,0 0,-11.25 -11.25,0 0,-11.25 11.25,0 0,-11.25 -11.25,0 0,-11.25 11.25,0 0,-11.25 z"
       id="rect4600-3-9" />
    <path
       style="fill:none;stroke:#ff0000;stroke-width:1;stroke-linecap:round;stroke-linejoin:round;stroke-miterlimit:4;stroke-opacity:1;stroke-dasharray:none"
       d="m 742.5,96.10975 0,11.25 11.25,0 0,11.25 -11.25,0 0,11.25 11.25,0 0,11.25 -11.25,0 0,11.25 11.25,0 0,11.25 -11.25,0 0,11.25 11.25,0 0,11.25 -11.25,0 0,11.25 11.25,0 0,11.25 0,11.25 11.25,0 0,-11.25 11.25,0 0,11.25 11.25,0 0,-11.25 11.25,0 0,11.25 11.25,0 0,-11.25 11.25,0 0,11.25 11.25,0 0,-11.25 11.25,0 0,11.25 11.25,0 0,-11.25 11.25,0 0,11.25 11.25,0 0,-11.25 11.25,0 0,11.25 11.25,0 0,-11.25 11.25,0 0,11.25 11.25,0 0,-11.25 11.25,0 0,11.25 11.25,0 0,-11.25 11.25,0 0,11.25 11.25,0 0,-11.25 11.25,0 0,11.25 11.25,0 0,-11.25 11.25,0 0,11.25 11.25,0 0,-11.25 11.25,0 0,11.25 11.25,0 0,-11.25 11.25,0 0,11.25 11.25,0 0,-11.25 11.25,0 11.25,0 0,-11.25 -11.25,0 0,-11.25 11.25,0 0,-11.25 -11.25,0 0,-11.25 11.25,0 0,-11.25 -11.25,0 0,-11.25 11.25,0 0,-11.25 -11.25,0 0,-11.25 11.25,0 0,-11.25 -11.25,0 0,-11.25 -315,0 -11.25,0 z"
       id="rect4531-8"
       inkscape:connector-curvature="0" />
    <path
       style="fill:none;stroke:#ff0000;stroke-width:1;stroke-linecap:round;stroke-linejoin:round;stroke-miterlimit:4;stroke-opacity:1;stroke-dasharray:none"
       d="m 742.5,231.10975 0,11.25 11.25,0 0,11.25 -11.25,0 0,11.25 11.25,0 0,11.25 -11.25,0 0,11.25 11.25,0 0,11.25 -11.25,0 0,11.25 11.25,0 0,11.25 -11.25,0 0,11.25 11.25,0 0,11.25 0,11.25 11.25,0 0,-11.25 11.25,0 0,11.25 11.25,0 0,-11.25 11.25,0 0,11.25 11.25,0 0,-11.25 11.25,0 0,11.25 11.25,0 0,-11.25 11.25,0 0,11.25 11.25,0 0,-11.25 11.25,0 0,11.25 11.25,0 0,-11.25 11.25,0 0,11.25 11.25,0 0,-11.25 11.25,0 0,11.25 11.25,0 0,-11.25 11.25,0 0,11.25 11.25,0 0,-11.25 11.25,0 0,11.25 11.25,0 0,-11.25 11.25,0 0,11.25 11.25,0 0,-11.25 11.25,0 0,11.25 11.25,0 0,-11.25 11.25,0 0,11.25 11.25,0 0,-11.25 11.25,0 0,11.25 11.25,0 0,-11.25 11.25,0 11.25,0 0,-11.25 -11.25,0 0,-11.25 11.25,0 0,-11.25 -11.25,0 0,-11.25 11.25,0 0,-11.25 -11.25,0 0,-11.25 11.25,0 0,-11.25 -11.25,0 0,-11.25 11.25,0 0,-11.25 -11.25,0 0,-11.25 -315,0 -11.25,0 z"
       id="rect4531-4"
       inkscape:connector-curvature="0" />
    <path
       style="fill:none;stroke:#ff0000;stroke-width:1.01693308;stroke-linecap:round;stroke-linejoin:round;stroke-miterlimit:4;stroke-opacity:1;stroke-dasharray:none"
       d="m 416.25,96.10975 0,11.25 -11.25,0 -11.25,0 0,11.25 11.25,0 0,11.25 -11.25,0 0,11.25 11.25,0 0,11.25 -11.25,0 0,11.25 11.25,0 0,11.25 -11.25,0 0,11.25 11.25,0 0,11.25 -11.25,0 0,11.25 11.25,0 0,11.25 -11.25,0 0,11.25 11.25,0 0,11.25 -11.25,0 0,11.25 11.25,0 0,11.25 -11.25,0 0,11.25 11.25,0 0,11.25 -11.25,0 0,11.25 11.25,0 0,11.25 -11.25,0 0,11.25 11.25,0 0,11.25 0,11.25 11.25,0 0,-11.25 11.25,0 0,11.25 11.25,0 0,-11.25 11.25,0 0,11.25 11.25,0 0,-11.25 11.25,0 0,11.25 11.25,0 0,-11.25 11.25,0 0,11.25 11.25,0 0,-11.25 11.25,0 0,11.25 11.25,0 0,-11.25 11.25,0 0,11.25 11.25,0 0,-11.25 11.25,0 0,11.25 11.25,0 0,-11.25 11.25,0 0,11.25 11.25,0 0,-11.25 11.25,0 0,11.25 11.25,0 0,-11.25 11.25,0 0,11.25 11.25,0 0,-11.25 11.25,0 0,11.25 11.25,0 0,-11.25 11.25,0 0,11.25 11.25,0 0,-11.25 11.25,0 0,11.25 11.25,0 0,-11.25 11.25,0 11.25,0 0,-11.25 -11.25,0 0,-11.25 11.25,0 0,-11.25 -11.25,0 0,-11.25 11.25,0 0,-11.25 -11.25,0 0,-11.25 11.25,0 0,-11.25 -11.25,0 0,-11.25 11.25,0 0,-11.25 -11.25,0 0,-11.25 11.25,0 0,-11.25 -11.25,0 0,-11.25 11.25,0 0,-11.25 -11.25,0 0,-11.25 11.25,0 0,-11.25 -11.25,0 0,-11.25 11.25,0 0,-11.25 -11.25,0 0,-11.25 11.25,0 0,-11.25 -11.25,0 0,-11.25 0,-11.25 -11.25,0 0,11.25 -11.25,0 0,-11.25 -11.25,0 0,11.25 -11.25,0 0,-11.25 -11.25,0 0,11.25 -11.25,0 0,-11.25 -11.25,0 0,11.25 -11.25,0 0,-11.25 -11.25,0 0,11.25 -11.25,0 0,-11.25 -11.25,0 0,11.25 -11.25,0 0,-11.25 -11.25,0 0,11.25 -11.25,0 0,-11.25 -11.25,0 0,11.25 -11.25,0 0,-11.25 -11.25,0 0,11.25 -11.25,0 0,-11.25 -11.25,0 0,11.25 -11.25,0 0,-11.25 -11.25,0 0,11.25 -11.25,0 0,-11.25 -11.25,0 0,11.25 -11.25,0 0,-11.25 -11.25,0 0,11.25 -11.25,0 0,-11.25 -11.25,0 z"
       id="rect2989-0"
       inkscape:connector-curvature="0" />
  </g>
</svg>
