<?xml version="1.0" encoding="UTF-8" standalone="no"?>
<!-- Created with Inkscape (http://www.inkscape.org/) -->

<svg
   xmlns:dc="http://purl.org/dc/elements/1.1/"
   xmlns:cc="http://creativecommons.org/ns#"
   xmlns:rdf="http://www.w3.org/1999/02/22-rdf-syntax-ns#"
   xmlns:svg="http://www.w3.org/2000/svg"
   xmlns="http://www.w3.org/2000/svg"
   xmlns:sodipodi="http://sodipodi.sourceforge.net/DTD/sodipodi-0.dtd"
   xmlns:inkscape="http://www.inkscape.org/namespaces/inkscape"
   width="1620"
   height="990"
   id="svg2"
   version="1.1"
   inkscape:version="0.48.5 r10040"
   sodipodi:docname="Mainboard Enclosure.svg">
  <defs
     id="defs4" />
  <sodipodi:namedview
     id="base"
     pagecolor="#ffffff"
     bordercolor="#666666"
     borderopacity="1.0"
     inkscape:pageopacity="0.0"
     inkscape:pageshadow="2"
     inkscape:zoom="1.4"
     inkscape:cx="331.10648"
     inkscape:cy="809.52068"
     inkscape:document-units="px"
     inkscape:current-layer="layer1"
     showgrid="true"
     units="in"
     inkscape:window-width="1366"
     inkscape:window-height="705"
     inkscape:window-x="-8"
     inkscape:window-y="-8"
     inkscape:window-maximized="1">
    <inkscape:grid
       type="xygrid"
       id="grid2985"
       units="in"
       empspacing="5"
       visible="true"
       enabled="true"
       snapvisiblegridlinesonly="true"
       spacingx="0.125in"
       spacingy="0.125in" />
  </sodipodi:namedview>
  <metadata
     id="metadata7">
    <rdf:RDF>
      <cc:Work
         rdf:about="">
        <dc:format>image/svg+xml</dc:format>
        <dc:type
           rdf:resource="http://purl.org/dc/dcmitype/StillImage" />
        <dc:title />
      </cc:Work>
    </rdf:RDF>
  </metadata>
  <g
     inkscape:label="Layer 1"
     inkscape:groupmode="layer"
     id="layer1"
     transform="translate(0,-62.35975)">
    <path
       style="fill:none;stroke:#ff0000;stroke-width:0.5;stroke-linecap:round;stroke-linejoin:round;stroke-miterlimit:4.04761887;stroke-opacity:1;stroke-dasharray:none"
       d="m 67.5,96.10975 0,11.25 -11.25,0 -11.25,0 0,11.25 11.25,0 0,11.25 -11.25,0 0,11.25 11.25,0 0,11.25 -11.25,0 0,11.25 11.25,0 0,11.25 -11.25,0 0,11.25 11.25,0 0,11.25 -11.25,0 0,11.25 11.25,0 0,11.25 -11.25,0 0,11.25 11.25,0 0,11.25 -11.25,0 0,11.25 11.25,0 0,11.25 -11.25,0 0,11.25 11.25,0 0,11.25 -11.25,0 0,11.25 11.25,0 0,11.25 -11.25,0 0,11.25 11.25,0 0,11.25 0,11.25 11.25,0 0,-11.25 11.25,0 0,11.25 11.25,0 0,-11.25 11.25,0 0,11.25 11.25,0 0,-11.25 11.25,0 0,11.25 11.25,0 0,-11.25 11.25,0 0,11.25 11.25,0 0,-11.25 11.25,0 0,11.25 11.25,0 0,-11.25 11.25,0 0,11.25 11.25,0 0,-11.25 11.25,0 0,11.25 11.25,0 0,-11.25 11.25,0 0,11.25 11.25,0 0,-11.25 11.25,0 0,11.25 11.25,0 0,-11.25 11.25,0 0,11.25 11.25,0 0,-11.25 11.25,0 0,11.25 11.25,0 0,-11.25 11.25,0 0,11.25 11.25,0 0,-11.25 11.25,0 0,11.25 11.25,0 0,-11.25 11.25,0 11.25,0 0,-11.25 -11.25,0 0,-11.25 11.25,0 0,-11.25 -11.25,0 0,-11.25 11.25,0 0,-11.25 -11.25,0 0,-11.25 11.25,0 0,-11.25 -11.25,0 0,-11.25 11.25,0 0,-11.25 -11.25,0 0,-11.25 11.25,0 0,-11.25 -11.25,0 0,-11.25 11.25,0 0,-11.25 -11.25,0 0,-11.25 11.25,0 0,-11.25 -11.25,0 0,-11.25 11.25,0 0,-11.25 -11.25,0 0,-11.25 11.25,0 0,-11.25 -11.25,0 0,-11.25 0,-11.25 -11.25,0 0,11.25 -11.25,0 0,-11.25 -11.25,0 0,11.25 -11.25,0 0,-11.25 -11.25,0 0,11.25 -11.25,0 0,-11.25 -11.25,0 0,11.25 -11.25,0 0,-11.25 -11.25,0 0,11.25 -11.25,0 0,-11.25 -11.25,0 0,11.25 -11.25,0 0,-11.25 -11.25,0 0,11.25 -11.25,0 0,-11.25 -11.25,0 0,11.25 -11.25,0 0,-11.25 -11.25,0 0,11.25 -11.25,0 0,-11.25 -11.25,0 0,11.25 -11.25,0 0,-11.25 -11.25,0 0,11.25 -11.25,0 0,-11.25 -11.25,0 0,11.25 -11.25,0 0,-11.25 -11.25,0 0,11.25 -11.25,0 0,-11.25 -11.25,0 z"
       id="rect2989"
       inkscape:connector-curvature="0" />
    <path
       inkscape:connector-curvature="0"
       style="fill:none;stroke:#ff0000;stroke-width:0.5;stroke-linecap:round;stroke-linejoin:round;stroke-miterlimit:4.04761887;stroke-opacity:1;stroke-dasharray:none"
       d="m 45,354.85975 0,11.25 11.25,0 0,11.25 -11.25,0 0,11.25 11.25,0 0,11.25 -11.25,0 0,11.25 11.25,0 0,11.25 -11.25,0 0,11.25 11.25,0 0,11.25 -11.25,0 0,11.25 11.25,0 0,11.25 0,11.25 11.25,0 0,-11.25 11.25,0 0,11.25 11.25,0 0,-11.25 11.25,0 0,11.25 11.25,0 0,-11.25 11.25,0 0,11.25 11.25,0 0,-11.25 11.25,0 0,11.25 11.25,0 0,-11.25 11.25,0 0,11.25 11.25,0 0,-11.25 11.25,0 0,11.25 11.25,0 0,-11.25 11.25,0 0,11.25 11.25,0 0,-11.25 11.25,0 0,11.25 11.25,0 0,-11.25 11.25,0 0,11.25 11.25,0 0,-11.25 11.25,0 0,11.25 11.25,0 0,-11.25 11.25,0 0,11.25 11.25,0 0,-11.25 11.25,0 0,11.25 11.25,0 0,-11.25 11.25,0 0,11.25 11.25,0 0,-11.25 11.25,0 11.25,0 0,-11.25 -11.25,0 0,-11.25 11.25,0 0,-11.25 -11.25,0 0,-11.25 11.25,0 0,-11.25 -11.25,0 0,-11.25 11.25,0 0,-11.25 -11.25,0 0,-11.25 11.25,0 0,-11.25 -11.25,0 0,-11.25 -315,0 -11.25,0 z"
       id="rect4531-1" />
    <path
       style="fill:none;stroke:#ff0000;stroke-width:0.5;stroke-linecap:round;stroke-linejoin:round;stroke-miterlimit:4.04761887;stroke-opacity:1;stroke-dasharray:none"
       d="m 641.25,388.60975 -11.25,0 0,-11.25 0,-11.25 -11.25,0 0,11.25 -11.25,0 0,-11.25 -11.25,0 0,11.25 -11.25,0 0,-11.25 -11.25,0 0,11.25 -11.25,0 0,-11.25 -11.25,0 0,11.25 -11.25,0 0,-11.25 -11.25,0 0,11.25 -11.25,0 0,-11.25 -11.25,0 0,11.25 -11.25,0 0,-11.25 -11.25,0 0,11.25 -11.25,0 0,-11.25 -11.25,0 0,11.25 -11.25,0 0,-11.25 -11.25,0 0,11.25 -11.25,0 0,-11.25 -11.25,0 0,11.25 -11.25,0 -11.25,0 0,11.25 11.25,0 0,11.25 -11.25,0 0,11.25 11.25,0 0,11.25 -11.25,0 0,11.25 11.25,0 0,11.25 -11.25,0 0,11.25 11.25,0 0,11.25 -11.25,0 0,11.25 11.25,0 0,11.25 225,0 11.25,0 0,-11.25 -11.25,0 0,-11.25 11.25,0 0,-11.25 -11.25,0 0,-11.25 11.25,0 0,-11.25 -11.25,0 0,-11.25 11.25,0 0,-11.25 -11.25,0 0,-11.25 11.25,0 0,-11.25 z"
       id="rect4600"
       inkscape:connector-curvature="0" />
    <path
       inkscape:connector-curvature="0"
       style="fill:none;stroke:#ff0000;stroke-width:0.5;stroke-linecap:round;stroke-linejoin:round;stroke-miterlimit:4.04761887;stroke-opacity:1;stroke-dasharray:none"
       d="m 641.25,253.60975 -11.25,0 0,-11.25 0,-11.25 -11.25,0 0,11.25 -11.25,0 0,-11.25 -11.25,0 0,11.25 -11.25,0 0,-11.25 -11.25,0 0,11.25 -11.25,0 0,-11.25 -11.25,0 0,11.25 -11.25,0 0,-11.25 -11.25,0 0,11.25 -11.25,0 0,-11.25 -11.25,0 0,11.25 -11.25,0 0,-11.25 -11.25,0 0,11.25 -11.25,0 0,-11.25 -11.25,0 0,11.25 -11.25,0 0,-11.25 -11.25,0 0,11.25 -11.25,0 0,-11.25 -11.25,0 0,11.25 -11.25,0 -11.25,0 0,11.25 11.25,0 0,11.25 -11.25,0 0,11.25 11.25,0 0,11.25 -11.25,0 0,11.25 11.25,0 0,11.25 -11.25,0 0,11.25 11.25,0 0,11.25 -11.25,0 0,11.25 11.25,0 0,11.25 225,0 11.25,0 0,-11.25 -11.25,0 0,-11.25 11.25,0 0,-11.25 -11.25,0 0,-11.25 11.25,0 0,-11.25 -11.25,0 0,-11.25 11.25,0 0,-11.25 -11.25,0 0,-11.25 11.25,0 0,-11.25 z"
       id="rect4600-3-5" />
    <path
       style="fill:none;stroke:#ff0000;stroke-width:0.5;stroke-linecap:round;stroke-linejoin:round;stroke-miterlimit:4.04761887;stroke-opacity:1;stroke-dasharray:none"
       d="m 393.75,96.10975 0,11.25 11.25,0 0,11.25 -11.25,0 0,11.25 11.25,0 0,11.25 -11.25,0 0,11.25 11.25,0 0,11.25 -11.25,0 0,11.25 11.25,0 0,11.25 -11.25,0 0,11.25 11.25,0 0,11.25 0,11.25 11.25,0 0,-11.25 11.25,0 0,11.25 11.25,0 0,-11.25 11.25,0 0,11.25 11.25,0 0,-11.25 11.25,0 0,11.25 11.25,0 0,-11.25 11.25,0 0,11.25 11.25,0 0,-11.25 11.25,0 0,11.25 11.25,0 0,-11.25 11.25,0 0,11.25 11.25,0 0,-11.25 11.25,0 0,11.25 11.25,0 0,-11.25 11.25,0 0,11.25 11.25,0 0,-11.25 11.25,0 0,11.25 11.25,0 0,-11.25 11.25,0 0,11.25 11.25,0 0,-11.25 11.25,0 0,11.25 11.25,0 0,-11.25 11.25,0 0,11.25 11.25,0 0,-11.25 11.25,0 0,11.25 11.25,0 0,-11.25 11.25,0 11.25,0 0,-11.25 -11.25,0 0,-11.25 11.25,0 0,-11.25 -11.25,0 0,-11.25 11.25,0 0,-11.25 -11.25,0 0,-11.25 11.25,0 0,-11.25 -11.25,0 0,-11.25 11.25,0 0,-11.25 -11.25,0 0,-11.25 -315,0 -11.25,0 z"
       id="rect4531-8"
       inkscape:connector-curvature="0" />
    <rect
       style="fill:none;stroke:#ff0000;stroke-width:0.5;stroke-linecap:butt;stroke-linejoin:miter;stroke-miterlimit:4.04761887;stroke-opacity:1;stroke-dasharray:none"
       id="rect3123"
       width="337.5"
       height="247.5"
       x="652.5"
       y="231.10976" />
    <rect
       style="fill:none;stroke:#ff0000;stroke-width:0.5;stroke-linecap:butt;stroke-linejoin:miter;stroke-miterlimit:4.04761887;stroke-opacity:1;stroke-dasharray:none"
       id="rect3765"
       width="146.25"
       height="11.25"
       x="135"
       y="191.25"
       transform="translate(0,62.35975)" />
    <rect
       style="fill:none;stroke:#ff0000;stroke-width:0.5;stroke-linecap:butt;stroke-linejoin:miter;stroke-miterlimit:4.04761887;stroke-opacity:1;stroke-dasharray:none"
       id="rect3767"
       width="11.25"
       height="22.5"
       x="326.25"
       y="112.5"
       transform="translate(0,62.35975)" />
  </g>
</svg>
