<?xml version="1.0" encoding="UTF-8" standalone="no"?>
<!-- Created with Inkscape (http://www.inkscape.org/) -->

<svg
   xmlns:dc="http://purl.org/dc/elements/1.1/"
   xmlns:cc="http://creativecommons.org/ns#"
   xmlns:rdf="http://www.w3.org/1999/02/22-rdf-syntax-ns#"
   xmlns:svg="http://www.w3.org/2000/svg"
   xmlns="http://www.w3.org/2000/svg"
   xmlns:sodipodi="http://sodipodi.sourceforge.net/DTD/sodipodi-0.dtd"
   xmlns:inkscape="http://www.inkscape.org/namespaces/inkscape"
   width="810"
   height="1080"
   id="svg2"
   version="1.1"
   inkscape:version="0.48.5 r10040"
   sodipodi:docname="New document 1">
  <defs
     id="defs4" />
  <sodipodi:namedview
     id="base"
     pagecolor="#ffffff"
     bordercolor="#666666"
     borderopacity="1.0"
     inkscape:pageopacity="0.0"
     inkscape:pageshadow="2"
     inkscape:zoom="1.4"
     inkscape:cx="669.73026"
     inkscape:cy="909.69331"
     inkscape:document-units="in"
     inkscape:current-layer="layer1"
     showgrid="true"
     inkscape:snap-grids="false"
     inkscape:window-width="1366"
     inkscape:window-height="705"
     inkscape:window-x="-8"
     inkscape:window-y="-8"
     inkscape:window-maximized="1">
    <inkscape:grid
       type="xygrid"
       id="grid5656"
       empspacing="5"
       visible="true"
       enabled="true"
       snapvisiblegridlinesonly="false"
       units="in"
       spacingx="0.25in"
       spacingy="0.25in" />
  </sodipodi:namedview>
  <metadata
     id="metadata7">
    <rdf:RDF>
      <cc:Work
         rdf:about="">
        <dc:format>image/svg+xml</dc:format>
        <dc:type
           rdf:resource="http://purl.org/dc/dcmitype/StillImage" />
        <dc:title></dc:title>
      </cc:Work>
    </rdf:RDF>
  </metadata>
  <g
     inkscape:label="Layer 1"
     inkscape:groupmode="layer"
     id="layer1"
     transform="translate(0,27.637839)">
    <path
       style="fill:#0000ff;fill-rule:evenodd;stroke:#000000;stroke-width:1px;stroke-linecap:butt;stroke-linejoin:miter;stroke-opacity:1"
       d="M 45 22.5 L 45 45 L 22.5 45 L 22.5 67.5 L 45 67.5 L 45 90 L 22.5 90 L 22.5 112.5 L 45 112.5 L 45 135 L 225 135 L 225 112.5 L 247.5 112.5 L 247.5 90 L 225 90 L 225 67.5 L 247.5 67.5 L 247.5 45 L 225 45 L 225 22.5 L 45 22.5 z "
       id="rect5658"
       transform="translate(0,-27.637839)" />
    <path
       inkscape:connector-curvature="0"
       style="fill:#0000ff;fill-rule:evenodd;stroke:#000000;stroke-width:1px;stroke-linecap:butt;stroke-linejoin:miter;stroke-opacity:1"
       d="m 292.5,-5.137839 0,22.5 -22.5,0 0,22.5 22.5,0 0,22.5 -22.5,0 0,22.5 22.5,0 0,22.499999 180,0 0,-22.499999 22.5,0 0,-22.5 -22.5,0 0,-22.5 22.5,0 0,-22.5 -22.5,0 0,-22.5 -180,0 z"
       id="rect5658-1" />
    <path
       inkscape:connector-curvature="0"
       style="fill:#0000ff;fill-rule:evenodd;stroke:#000000;stroke-width:1px;stroke-linecap:butt;stroke-linejoin:miter;stroke-opacity:1"
       d="m 540,-5.137839 0,22.5 -22.5,0 0,22.5 22.5,0 0,22.5 -22.5,0 0,22.5 22.5,0 0,22.499999 180,0 0,-22.499999 22.5,0 0,-22.5 -22.5,0 0,-22.5 22.5,0 0,-22.5 -22.5,0 0,-22.5 -180,0 z"
       id="rect5658-7" />
    <rect
       style="fill:#0000ff;fill-rule:evenodd;stroke:#000000;stroke-width:1px;stroke-linecap:butt;stroke-linejoin:miter;stroke-opacity:1"
       id="rect5706"
       width="315"
       height="405"
       x="22.5"
       y="129.86217" />
    <rect
       style="fill:#0000ff;fill-rule:evenodd;stroke:#000000;stroke-width:1px;stroke-linecap:butt;stroke-linejoin:miter;stroke-opacity:1"
       id="rect5706-4"
       width="315"
       height="405"
       x="360"
       y="129.86217" />
    <path
       style="fill:#0000ff;fill-rule:evenodd;stroke:#000000;stroke-width:1px;stroke-linecap:butt;stroke-linejoin:miter;stroke-opacity:1"
       d="M 720 225 L 720 247.5 L 697.5 247.5 L 697.5 427.5 L 720 427.5 L 720 450 L 742.5 450 L 742.5 427.5 L 765 427.5 L 765 450 L 787.5 450 L 787.5 427.5 L 810 427.5 L 810 405 L 787.5 405 L 787.5 270 L 810 270 L 810 247.5 L 787.5 247.5 L 787.5 225 L 765 225 L 765 247.5 L 742.5 247.5 L 742.5 225 L 720 225 z "
       transform="translate(0,-27.637839)"
       id="rect5658-7-0" />
    <path
       style="fill:none;stroke:#000000;stroke-width:1px;stroke-linecap:butt;stroke-linejoin:miter;stroke-opacity:1"
       d="m 43.436559,78.938828 676.802201,0 -1.01015,0 2.02031,0"
       id="path5750"
       inkscape:connector-curvature="0"
       transform="translate(0,-27.637839)" />
    <path
       style="fill:none;stroke:#000000;stroke-width:1px;stroke-linecap:butt;stroke-linejoin:miter;stroke-opacity:1"
       d="M 90,22.5 C 90,135 90,135 90,135 l 0,0"
       id="path5752"
       inkscape:connector-curvature="0"
       transform="translate(0,-27.637839)" />
    <path
       style="fill:none;stroke:#000000;stroke-width:1px;stroke-linecap:butt;stroke-linejoin:miter;stroke-opacity:1"
       d="M 180,22.5 180,135"
       id="path5754"
       inkscape:connector-curvature="0"
       transform="translate(0,-27.637839)" />
    <path
       style="fill:none;stroke:#000000;stroke-width:1px;stroke-linecap:butt;stroke-linejoin:miter;stroke-opacity:1"
       d="m 337.5,22.5 0,112.5"
       id="path5756"
       inkscape:connector-curvature="0"
       transform="translate(0,-27.637839)" />
    <path
       style="fill:none;stroke:#000000;stroke-width:1px;stroke-linecap:butt;stroke-linejoin:miter;stroke-opacity:1"
       d="m 427.5,22.5 0,112.5"
       id="path5758"
       inkscape:connector-curvature="0"
       transform="translate(0,-27.637839)" />
    <path
       style="fill:none;stroke:#000000;stroke-width:1px;stroke-linecap:butt;stroke-linejoin:miter;stroke-opacity:1"
       d="M 585,22.5 585,135"
       id="path5760"
       inkscape:connector-curvature="0"
       transform="translate(0,-27.637839)" />
    <path
       style="fill:none;stroke:#000000;stroke-width:1px;stroke-linecap:butt;stroke-linejoin:miter;stroke-opacity:1"
       d="M 675,22.5 675,135"
       id="path5762"
       inkscape:connector-curvature="0"
       transform="translate(0,-27.637839)" />
    <path
       sodipodi:type="arc"
       style="fill:#ff0000;fill-rule:evenodd;stroke:#000000;stroke-width:0.99000001;stroke-linecap:butt;stroke-linejoin:miter;stroke-miterlimit:4;stroke-opacity:1;stroke-dasharray:none"
       id="path5764"
       sodipodi:cx="111.07143"
       sodipodi:cy="100.71429"
       sodipodi:rx="21.785715"
       sodipodi:ry="22.142857"
       d="m 132.85714,100.71429 a 21.785715,22.142857 0 1 1 -0.0483,-1.473725"
       transform="matrix(1.2623024,0,0,1.2423879,-49.848586,-74.192625)"
       sodipodi:start="0"
       sodipodi:end="6.2165809"
       sodipodi:open="true" />
    <path
       sodipodi:type="arc"
       style="fill:#ff0000;fill-rule:evenodd;stroke:#000000;stroke-width:0.99000001;stroke-linecap:butt;stroke-linejoin:miter;stroke-miterlimit:4;stroke-opacity:1;stroke-dasharray:none"
       id="path5764-5"
       sodipodi:cx="111.07143"
       sodipodi:cy="100.71429"
       sodipodi:rx="21.785715"
       sodipodi:ry="22.142857"
       d="m 132.85714,100.71429 a 21.785715,22.142857 0 1 1 -0.0483,-1.473725"
       transform="matrix(1.2623024,0,0,1.2423879,39.794272,-74.192623)"
       sodipodi:start="0"
       sodipodi:end="6.2165809"
       sodipodi:open="true" />
    <path
       sodipodi:type="arc"
       style="fill:#ff0000;fill-rule:evenodd;stroke:#000000;stroke-width:0.99000001;stroke-linecap:butt;stroke-linejoin:miter;stroke-miterlimit:4;stroke-opacity:1;stroke-dasharray:none"
       id="path5764-1"
       sodipodi:cx="111.07143"
       sodipodi:cy="100.71429"
       sodipodi:rx="21.785715"
       sodipodi:ry="22.142857"
       d="m 132.85714,100.71429 a 21.785715,22.142857 0 1 1 -0.0483,-1.473725"
       transform="matrix(1.2623024,0,0,1.2423879,196.93713,-74.192623)"
       sodipodi:start="0"
       sodipodi:end="6.2165809"
       sodipodi:open="true" />
    <path
       sodipodi:type="arc"
       style="fill:#ff0000;fill-rule:evenodd;stroke:#000000;stroke-width:0.99000001;stroke-linecap:butt;stroke-linejoin:miter;stroke-miterlimit:4;stroke-opacity:1;stroke-dasharray:none"
       id="path5764-7"
       sodipodi:cx="111.07143"
       sodipodi:cy="100.71429"
       sodipodi:rx="21.785715"
       sodipodi:ry="22.142857"
       d="m 132.85714,100.71429 a 21.785715,22.142857 0 1 1 -0.0483,-1.473725"
       transform="matrix(1.2623024,0,0,1.2423879,286.93713,-74.192623)"
       sodipodi:start="0"
       sodipodi:end="6.2165809"
       sodipodi:open="true" />
    <path
       sodipodi:type="arc"
       style="fill:#ff0000;fill-rule:evenodd;stroke:#000000;stroke-width:0.99000001;stroke-linecap:butt;stroke-linejoin:miter;stroke-miterlimit:4;stroke-opacity:1;stroke-dasharray:none"
       id="path5764-11"
       sodipodi:cx="111.07143"
       sodipodi:cy="100.71429"
       sodipodi:rx="21.785715"
       sodipodi:ry="22.142857"
       d="m 132.85714,100.71429 a 21.785715,22.142857 0 1 1 -0.0483,-1.473725"
       transform="matrix(1.2623024,0,0,1.2423879,444.79427,-74.192622)"
       sodipodi:start="0"
       sodipodi:end="6.2165809"
       sodipodi:open="true" />
    <path
       sodipodi:type="arc"
       style="fill:#ff0000;fill-rule:evenodd;stroke:#000000;stroke-width:0.99000001;stroke-linecap:butt;stroke-linejoin:miter;stroke-miterlimit:4;stroke-opacity:1;stroke-dasharray:none"
       id="path5764-52"
       sodipodi:cx="111.07143"
       sodipodi:cy="100.71429"
       sodipodi:rx="21.785715"
       sodipodi:ry="22.142857"
       d="m 132.85714,100.71429 a 21.785715,22.142857 0 1 1 -0.0483,-1.473725"
       transform="matrix(1.2623024,0,0,1.2423879,534.79428,-74.192623)"
       sodipodi:start="0"
       sodipodi:end="6.2165809"
       sodipodi:open="true" />
  </g>
</svg>
