<?xml version="1.0" encoding="UTF-8" standalone="no"?>
<!-- Created with Inkscape (http://www.inkscape.org/) -->

<svg
   xmlns:dc="http://purl.org/dc/elements/1.1/"
   xmlns:cc="http://creativecommons.org/ns#"
   xmlns:rdf="http://www.w3.org/1999/02/22-rdf-syntax-ns#"
   xmlns:svg="http://www.w3.org/2000/svg"
   xmlns="http://www.w3.org/2000/svg"
   xmlns:sodipodi="http://sodipodi.sourceforge.net/DTD/sodipodi-0.dtd"
   xmlns:inkscape="http://www.inkscape.org/namespaces/inkscape"
   width="1620"
   height="990"
   id="svg2"
   version="1.1"
   inkscape:version="0.48.5 r10040"
   sodipodi:docname="Sensor Enclosure.svg">
  <defs
     id="defs4" />
  <sodipodi:namedview
     id="base"
     pagecolor="#ffffff"
     bordercolor="#666666"
     borderopacity="1.0"
     inkscape:pageopacity="0.0"
     inkscape:pageshadow="2"
     inkscape:zoom="0.78809695"
     inkscape:cx="1022.5841"
     inkscape:cy="611.92979"
     inkscape:document-units="in"
     inkscape:current-layer="layer1"
     showgrid="true"
     inkscape:snap-grids="true"
     inkscape:window-width="1366"
     inkscape:window-height="705"
     inkscape:window-x="-8"
     inkscape:window-y="-8"
     inkscape:window-maximized="1"
     units="in"
     showguides="true"
     inkscape:guide-bbox="true">
    <inkscape:grid
       type="xygrid"
       id="grid5656"
       empspacing="5"
       visible="true"
       enabled="true"
       snapvisiblegridlinesonly="true"
       units="in"
       spacingx="0.125in"
       spacingy="0.125in" />
    <sodipodi:guide
       orientation="1,0"
       position="90,1068.75"
       id="guide3843" />
    <sodipodi:guide
       orientation="1,0"
       position="180,1068.75"
       id="guide3845" />
    <sodipodi:guide
       orientation="0,1"
       position="33.75,1001.25"
       id="guide3847" />
  </sodipodi:namedview>
  <metadata
     id="metadata7">
    <rdf:RDF>
      <cc:Work
         rdf:about="">
        <dc:format>image/svg+xml</dc:format>
        <dc:type
           rdf:resource="http://purl.org/dc/dcmitype/StillImage" />
        <dc:title />
      </cc:Work>
    </rdf:RDF>
  </metadata>
  <g
     inkscape:label="Layer 1"
     inkscape:groupmode="layer"
     id="layer1"
     transform="translate(0,-62.36216)">
    <path
       style="fill:none;stroke:#ff0000;stroke-width:1px;stroke-linecap:butt;stroke-linejoin:miter;stroke-opacity:1"
       d="m 1372.5,489.86216 0,22.5 -11.25,0 0,22.5 11.25,0 0,22.5 -11.25,0 0,22.5 11.25,0 0,22.5 180,0 0,-22.5 11.25,0 0,-22.5 -11.25,0 0,-22.5 11.25,0 0,-22.5 -11.25,0 0,-22.5 z"
       id="rect5658"
       inkscape:connector-curvature="0"
       clip-path="none"
       sodipodi:nodetypes="ccccccccccccccccccccc" />
    <rect
       style="fill:none;stroke:#ff0000;stroke-width:1px;stroke-linecap:butt;stroke-linejoin:miter;stroke-opacity:1"
       id="rect5706"
       width="315"
       height="405"
       x="22.5"
       y="84.86216" />
    <rect
       style="fill:none;stroke:#ff0000;stroke-width:1px;stroke-linecap:butt;stroke-linejoin:miter;stroke-opacity:1"
       id="rect5706-4"
       width="315"
       height="405"
       x="337.5"
       y="84.86216" />
    <path
       style="fill:none;stroke:#ff0000;stroke-width:1px;stroke-linecap:butt;stroke-linejoin:miter;stroke-opacity:1"
       d="m 1147.5,96.11216 0,11.25 -22.5,0 0,180 22.5,0 0,11.25 22.5,0 0,-11.25 22.5,0 0,11.25 22.5,0 0,-11.25 22.5,0 0,-22.5 -22.5,0 0,-135 22.5,0 0,-22.5 -22.5,0 0,-11.25 -22.5,0 0,11.25 -22.5,0 0,-11.25 z"
       id="rect5658-7-0"
       inkscape:connector-curvature="0"
       sodipodi:nodetypes="ccccccccccccccccccccccccc" />
    <path
       sodipodi:type="arc"
       style="fill:none;stroke:#ff0000;stroke-width:0.99000001;stroke-linecap:butt;stroke-linejoin:miter;stroke-miterlimit:4;stroke-opacity:1;stroke-dasharray:none"
       id="path5764"
       sodipodi:cx="111.07143"
       sodipodi:cy="100.71429"
       sodipodi:rx="21.785715"
       sodipodi:ry="22.142857"
       d="m 132.85714,100.71429 a 21.785715,22.142857 0 1 1 -43.571429,0 21.785715,22.142857 0 1 1 43.571429,0 z"
       transform="matrix(1.2623024,0,0,1.2423879,1277.2067,421.02974)"
       clip-path="none" />
    <path
       sodipodi:type="arc"
       style="fill:none;stroke:#ff0000;stroke-width:0.99000001;stroke-linecap:butt;stroke-linejoin:miter;stroke-miterlimit:4;stroke-opacity:1;stroke-dasharray:none"
       id="path5764-5"
       sodipodi:cx="111.07143"
       sodipodi:cy="100.71429"
       sodipodi:rx="21.785715"
       sodipodi:ry="22.142857"
       d="m 132.85714,100.71429 a 21.785715,22.142857 0 1 1 -43.571429,0 21.785715,22.142857 0 1 1 43.571429,0 z"
       transform="matrix(1.2623024,0,0,1.2423879,1367.2943,420.80738)"
       clip-path="none" />
    <path
       style="fill:none;stroke:#ff0000;stroke-width:1px;stroke-linecap:butt;stroke-linejoin:miter;stroke-opacity:1"
       d="m 1136.25,321.11216 0,22.5 -11.25,0 0,22.5 11.25,0 0,22.5 -11.25,0 0,22.5 11.25,0 0,22.5 180,0 0,-22.5 11.25,0 0,-22.5 -11.25,0 0,-22.5 11.25,0 0,-22.5 -11.25,0 0,-22.5 z"
       id="rect5658-1"
       inkscape:connector-curvature="0"
       clip-path="none"
       sodipodi:nodetypes="ccccccccccccccccccccc" />
    <path
       sodipodi:type="arc"
       style="fill:none;stroke:#ff0000;stroke-width:0.99000001;stroke-linecap:butt;stroke-linejoin:miter;stroke-miterlimit:4;stroke-opacity:1;stroke-dasharray:none"
       id="path5764-7"
       sodipodi:cx="111.07143"
       sodipodi:cy="100.71429"
       sodipodi:rx="21.785715"
       sodipodi:ry="22.142857"
       d="m 132.85714,100.71429 a 21.785715,22.142857 0 1 1 -43.571429,0 21.785715,22.142857 0 1 1 43.571429,0 z"
       transform="matrix(1.2623024,0,0,1.2423879,1040.9567,252.27974)"
       clip-path="none" />
    <path
       sodipodi:type="arc"
       style="fill:none;stroke:#ff0000;stroke-width:0.99000001;stroke-linecap:butt;stroke-linejoin:miter;stroke-miterlimit:4;stroke-opacity:1;stroke-dasharray:none"
       id="path5764-5-4"
       sodipodi:cx="111.07143"
       sodipodi:cy="100.71429"
       sodipodi:rx="21.785715"
       sodipodi:ry="22.142857"
       d="m 132.85714,100.71429 a 21.785715,22.142857 0 1 1 -43.571429,0 21.785715,22.142857 0 1 1 43.571429,0 z"
       transform="matrix(1.2623024,0,0,1.2423879,1131.0443,252.05738)"
       clip-path="none" />
    <path
       style="fill:none;stroke:#ff0000;stroke-width:1px;stroke-linecap:butt;stroke-linejoin:miter;stroke-opacity:1"
       d="m 1350,321.11216 0,22.5 -11.25,0 0,22.5 11.25,0 0,22.5 -11.25,0 0,22.5 11.25,0 0,22.5 180,0 0,-22.5 11.25,0 0,-22.5 -11.25,0 0,-22.5 11.25,0 0,-22.5 -11.25,0 0,-22.5 z"
       id="rect5658-8"
       inkscape:connector-curvature="0"
       clip-path="none"
       sodipodi:nodetypes="ccccccccccccccccccccc" />
    <path
       sodipodi:type="arc"
       style="fill:none;stroke:#ff0000;stroke-width:0.99000001;stroke-linecap:butt;stroke-linejoin:miter;stroke-miterlimit:4;stroke-opacity:1;stroke-dasharray:none"
       id="path5764-2"
       sodipodi:cx="111.07143"
       sodipodi:cy="100.71429"
       sodipodi:rx="21.785715"
       sodipodi:ry="22.142857"
       d="m 132.85714,100.71429 a 21.785715,22.142857 0 1 1 -43.571429,0 21.785715,22.142857 0 1 1 43.571429,0 z"
       transform="matrix(1.2623024,0,0,1.2423879,1254.7067,252.27974)"
       clip-path="none" />
    <path
       sodipodi:type="arc"
       style="fill:none;stroke:#ff0000;stroke-width:0.99000001;stroke-linecap:butt;stroke-linejoin:miter;stroke-miterlimit:4;stroke-opacity:1;stroke-dasharray:none"
       id="path5764-5-45"
       sodipodi:cx="111.07143"
       sodipodi:cy="100.71429"
       sodipodi:rx="21.785715"
       sodipodi:ry="22.142857"
       d="m 132.85714,100.71429 a 21.785715,22.142857 0 1 1 -43.571429,0 21.785715,22.142857 0 1 1 43.571429,0 z"
       transform="matrix(1.2623024,0,0,1.2423879,1344.7943,252.05738)"
       clip-path="none" />
    <path
       style="fill:none;stroke:#ff0000;stroke-width:1px;stroke-linecap:butt;stroke-linejoin:miter;stroke-opacity:1"
       d="m 1260,96.11216 0,11.25 -22.5,0 0,180 22.5,0 0,11.25 22.5,0 0,-11.25 22.5,0 0,11.25 22.5,0 0,-11.25 22.5,0 0,-22.5 -22.5,0 0,-135 22.5,0 0,-22.5 -22.5,0 0,-11.25 -22.5,0 0,11.25 -22.5,0 0,-11.25 z"
       id="rect5658-7-0-3"
       inkscape:connector-curvature="0"
       sodipodi:nodetypes="ccccccccccccccccccccccccc" />
    <path
       style="fill:none;stroke:#ff0000;stroke-width:1px;stroke-linecap:butt;stroke-linejoin:miter;stroke-opacity:1"
       d="m 1096.2501,107.1836 0,22.5 11.25,0 0,22.5 -11.25,0 0,22.5 11.25,0 0,22.49998 -11.25,0 0,22.5 -179.99991,0 0,-22.5 -11.25,0 0,-22.49998 11.25,0 0,-22.5 -11.25,0 0,-22.5 11.25,0 0,-22.5 z"
       id="rect5658-8-2"
       inkscape:connector-curvature="0"
       clip-path="none"
       sodipodi:nodetypes="ccccccccccccccccccccc" />
    <path
       sodipodi:type="arc"
       style="fill:none;stroke:#ff0000;stroke-width:0.99000001;stroke-linecap:butt;stroke-linejoin:miter;stroke-miterlimit:4;stroke-opacity:1;stroke-dasharray:none"
       id="path5764-2-2"
       sodipodi:cx="111.07143"
       sodipodi:cy="100.71429"
       sodipodi:rx="21.785715"
       sodipodi:ry="22.142857"
       d="m 132.85714,100.71429 a 21.785715,22.142857 0 1 1 -43.571429,0 21.785715,22.142857 0 1 1 43.571429,0 z"
       transform="matrix(-1.2623024,0,0,1.2423879,1191.5434,38.35117)"
       clip-path="none" />
    <path
       sodipodi:type="arc"
       style="fill:none;stroke:#ff0000;stroke-width:0.99000001;stroke-linecap:butt;stroke-linejoin:miter;stroke-miterlimit:4;stroke-opacity:1;stroke-dasharray:none"
       id="path5764-5-45-1"
       sodipodi:cx="111.07143"
       sodipodi:cy="100.71429"
       sodipodi:rx="21.785715"
       sodipodi:ry="22.142857"
       d="m 132.85714,100.71429 a 21.785715,22.142857 0 1 1 -43.571429,0 21.785715,22.142857 0 1 1 43.571429,0 z"
       transform="matrix(-1.2623024,0,0,1.2423879,1101.4558,38.12881)"
       clip-path="none" />
    <path
       style="fill:none;stroke:#ff0000;stroke-width:1px;stroke-linecap:butt;stroke-linejoin:miter;stroke-opacity:1"
       d="m 888.75,219.86216 0,-22.5 11.25,0 0,-22.5 -11.25,0 0,-22.5 11.25,0 0,-22.5 -11.25,0 0,-22.5 -180,0 0,22.5 -11.25,0 0,22.5 11.25,0 0,22.5 -11.25,0 0,22.5 11.25,0 0,22.5 z"
       id="rect5658-8-6"
       inkscape:connector-curvature="0"
       clip-path="none"
       sodipodi:nodetypes="ccccccccccccccccccccc" />
    <path
       sodipodi:type="arc"
       style="fill:none;stroke:#ff0000;stroke-width:0.99000001;stroke-linecap:butt;stroke-linejoin:miter;stroke-miterlimit:4;stroke-opacity:1;stroke-dasharray:none"
       id="path5764-2-8"
       sodipodi:cx="111.07143"
       sodipodi:cy="100.71429"
       sodipodi:rx="21.785715"
       sodipodi:ry="22.142857"
       d="m 132.85714,100.71429 a 21.785715,22.142857 0 1 1 -43.571429,0 21.785715,22.142857 0 1 1 43.571429,0 z"
       transform="matrix(-1.2623024,0,0,-1.2423879,893.86813,288.78216)"
       clip-path="none" />
    <path
       sodipodi:type="arc"
       style="fill:none;stroke:#ff0000;stroke-width:0.99000001;stroke-linecap:butt;stroke-linejoin:miter;stroke-miterlimit:4;stroke-opacity:1;stroke-dasharray:none"
       id="path5764-5-45-5"
       sodipodi:cx="111.07143"
       sodipodi:cy="100.71429"
       sodipodi:rx="21.785715"
       sodipodi:ry="22.142857"
       d="m 132.85714,100.71429 a 21.785715,22.142857 0 1 1 -43.571429,0 21.785715,22.142857 0 1 1 43.571429,0 z"
       transform="matrix(-1.2623024,0,0,-1.2423879,983.95573,288.5598)"
       clip-path="none" />
    <path
       style="fill:none;stroke:#ff0000;stroke-width:1px;stroke-linecap:butt;stroke-linejoin:miter;stroke-opacity:1"
       d="m 1096.2501,230.93361 0,22.50001 11.25,0 0,22.5 -11.25,0 0,22.5 11.25,0 0,22.49996 -11.25,0 0,22.5 -179.99992,0 0,-22.5 -11.25,0 0,-22.49996 11.25,0 0,-22.5 -11.25,0 0,-22.5 11.25,0 0,-22.50001 z"
       id="rect5658-8-2-7"
       inkscape:connector-curvature="0"
       clip-path="none"
       sodipodi:nodetypes="ccccccccccccccccccccc" />
    <path
       sodipodi:type="arc"
       style="fill:none;stroke:#ff0000;stroke-width:0.99000001;stroke-linecap:butt;stroke-linejoin:miter;stroke-miterlimit:4;stroke-opacity:1;stroke-dasharray:none"
       id="path5764-2-2-6"
       sodipodi:cx="111.07143"
       sodipodi:cy="100.71429"
       sodipodi:rx="21.785715"
       sodipodi:ry="22.142857"
       d="m 132.85714,100.71429 a 21.785715,22.142857 0 1 1 -43.571429,0 21.785715,22.142857 0 1 1 43.571429,0 z"
       transform="matrix(-1.2623024,0,0,1.2423879,1191.5434,162.10118)"
       clip-path="none" />
    <path
       sodipodi:type="arc"
       style="fill:none;stroke:#ff0000;stroke-width:0.99000001;stroke-linecap:butt;stroke-linejoin:miter;stroke-miterlimit:4;stroke-opacity:1;stroke-dasharray:none"
       id="path5764-5-45-1-1"
       sodipodi:cx="111.07143"
       sodipodi:cy="100.71429"
       sodipodi:rx="21.785715"
       sodipodi:ry="22.142857"
       d="m 132.85714,100.71429 a 21.785715,22.142857 0 1 1 -43.571429,0 21.785715,22.142857 0 1 1 43.571429,0 z"
       transform="matrix(-1.2623024,0,0,1.2423879,1101.4558,161.87882)"
       clip-path="none" />
    <path
       style="fill:none;stroke:#ff0000;stroke-width:1px;stroke-linecap:butt;stroke-linejoin:miter;stroke-opacity:1"
       d="m 888.75,343.61216 0,-22.5 11.25,0 0,-22.5 -11.25,0 0,-22.5 11.25,0 0,-22.5 -11.25,0 0,-22.5 -180,0 0,22.5 -11.25,0 0,22.5 11.25,0 0,22.5 -11.25,0 0,22.5 11.25,0 0,22.5 z"
       id="rect5658-8-6-8"
       inkscape:connector-curvature="0"
       clip-path="none"
       sodipodi:nodetypes="ccccccccccccccccccccc" />
    <path
       sodipodi:type="arc"
       style="fill:none;stroke:#ff0000;stroke-width:0.99000001;stroke-linecap:butt;stroke-linejoin:miter;stroke-miterlimit:4;stroke-opacity:1;stroke-dasharray:none"
       id="path5764-2-8-9"
       sodipodi:cx="111.07143"
       sodipodi:cy="100.71429"
       sodipodi:rx="21.785715"
       sodipodi:ry="22.142857"
       d="m 132.85714,100.71429 a 21.785715,22.142857 0 1 1 -43.571429,0 21.785715,22.142857 0 1 1 43.571429,0 z"
       transform="matrix(-1.2623024,0,0,-1.2423879,893.86813,412.53217)"
       clip-path="none" />
    <path
       sodipodi:type="arc"
       style="fill:none;stroke:#ff0000;stroke-width:0.99000001;stroke-linecap:butt;stroke-linejoin:miter;stroke-miterlimit:4;stroke-opacity:1;stroke-dasharray:none"
       id="path5764-5-45-5-2"
       sodipodi:cx="111.07143"
       sodipodi:cy="100.71429"
       sodipodi:rx="21.785715"
       sodipodi:ry="22.142857"
       d="m 132.85714,100.71429 a 21.785715,22.142857 0 1 1 -43.571429,0 21.785715,22.142857 0 1 1 43.571429,0 z"
       transform="matrix(-1.2623024,0,0,-1.2423879,983.95573,412.30981)"
       clip-path="none" />
    <path
       style="fill:none;stroke:#ff0000;stroke-width:1px;stroke-linecap:butt;stroke-linejoin:miter;stroke-opacity:1"
       d="m 1096.2501,360.74501 0,22.5 11.25,0 0,22.5 -11.25,0 0,22.5 11.25,0 0,22.5 -11.25,0 0,22.5 -179.99997,0 0,-22.5 -11.25,0 0,-22.5 11.25,0 0,-22.5 -11.25,0 0,-22.5 11.25,0 0,-22.5 z"
       id="rect5658-8-2-79"
       inkscape:connector-curvature="0"
       clip-path="none"
       sodipodi:nodetypes="ccccccccccccccccccccc" />
    <path
       sodipodi:type="arc"
       style="fill:none;stroke:#ff0000;stroke-width:0.99000001;stroke-linecap:butt;stroke-linejoin:miter;stroke-miterlimit:4;stroke-opacity:1;stroke-dasharray:none"
       id="path5764-2-2-5"
       sodipodi:cx="111.07143"
       sodipodi:cy="100.71429"
       sodipodi:rx="21.785715"
       sodipodi:ry="22.142857"
       d="m 132.85714,100.71429 a 21.785715,22.142857 0 1 1 -43.571429,0 21.785715,22.142857 0 1 1 43.571429,0 z"
       transform="matrix(-1.2623024,0,0,1.2423879,1191.5434,291.91259)"
       clip-path="none" />
    <path
       sodipodi:type="arc"
       style="fill:none;stroke:#ff0000;stroke-width:0.99000001;stroke-linecap:butt;stroke-linejoin:miter;stroke-miterlimit:4;stroke-opacity:1;stroke-dasharray:none"
       id="path5764-5-45-1-4"
       sodipodi:cx="111.07143"
       sodipodi:cy="100.71429"
       sodipodi:rx="21.785715"
       sodipodi:ry="22.142857"
       d="m 132.85714,100.71429 a 21.785715,22.142857 0 1 1 -43.571429,0 21.785715,22.142857 0 1 1 43.571429,0 z"
       transform="matrix(-1.2623024,0,0,1.2423879,1101.4558,291.69023)"
       clip-path="none" />
    <path
       style="fill:none;stroke:#ff0000;stroke-width:1px;stroke-linecap:butt;stroke-linejoin:miter;stroke-opacity:1"
       d="m 888.74993,473.42356 0,-22.5 11.25,0 0,-22.5 -11.25,0 0,-22.5 11.25,0 0,-22.5 -11.25,0 0,-22.49998 -180,0 0,22.49998 -11.25,0 0,22.5 11.25,0 0,22.5 -11.25,0 0,22.5 11.25,0 0,22.5 z"
       id="rect5658-8-6-3"
       inkscape:connector-curvature="0"
       clip-path="none"
       sodipodi:nodetypes="ccccccccccccccccccccc" />
    <path
       sodipodi:type="arc"
       style="fill:none;stroke:#ff0000;stroke-width:0.99000001;stroke-linecap:butt;stroke-linejoin:miter;stroke-miterlimit:4;stroke-opacity:1;stroke-dasharray:none"
       id="path5764-2-8-1"
       sodipodi:cx="111.07143"
       sodipodi:cy="100.71429"
       sodipodi:rx="21.785715"
       sodipodi:ry="22.142857"
       d="m 132.85714,100.71429 a 21.785715,22.142857 0 1 1 -43.571429,0 21.785715,22.142857 0 1 1 43.571429,0 z"
       transform="matrix(-1.2623024,0,0,-1.2423879,893.86806,542.3436)"
       clip-path="none" />
    <path
       sodipodi:type="arc"
       style="fill:none;stroke:#ff0000;stroke-width:0.99000001;stroke-linecap:butt;stroke-linejoin:miter;stroke-miterlimit:4;stroke-opacity:1;stroke-dasharray:none"
       id="path5764-5-45-5-23"
       sodipodi:cx="111.07143"
       sodipodi:cy="100.71429"
       sodipodi:rx="21.785715"
       sodipodi:ry="22.142857"
       d="m 132.85714,100.71429 a 21.785715,22.142857 0 1 1 -43.571429,0 21.785715,22.142857 0 1 1 43.571429,0 z"
       transform="matrix(-1.2623024,0,0,-1.2423879,983.95566,542.1212)"
       clip-path="none" />
    <path
       style="fill:none;stroke:#ff0000;stroke-width:1px;stroke-linecap:butt;stroke-linejoin:miter;stroke-opacity:1"
       d="m 1372.5,96.11216 0,11.25 -22.5,0 0,180 22.5,0 0,11.25 22.5,0 0,-11.25 22.5,0 0,11.25 22.5,0 0,-11.25 22.5,0 0,-22.5 -22.5,0 0,-135 22.5,0 0,-22.5 -22.5,0 0,-11.25 -22.5,0 0,11.25 -22.5,0 0,-11.25 z"
       id="rect5658-7-0-3-3"
       inkscape:connector-curvature="0"
       sodipodi:nodetypes="ccccccccccccccccccccccccc" />
    <rect
       style="fill:none;stroke:#ff0000;stroke-width:1px;stroke-linecap:butt;stroke-linejoin:miter;stroke-opacity:1"
       id="rect5706-41"
       width="315"
       height="405"
       x="22.5"
       y="489.86215" />
    <rect
       style="fill:none;stroke:#ff0000;stroke-width:1px;stroke-linecap:butt;stroke-linejoin:miter;stroke-opacity:1"
       id="rect5706-4-1"
       width="315"
       height="405"
       x="337.5"
       y="489.86215" />
    <rect
       style="fill:none;stroke:#ff0000;stroke-width:1px;stroke-linecap:butt;stroke-linejoin:miter;stroke-opacity:1"
       id="rect5706-4-1-1"
       width="315"
       height="405"
       x="708.75"
       y="489.86215" />
    <rect
       style="fill:none;stroke:#ff0000;stroke-width:1px;stroke-linecap:butt;stroke-linejoin:miter;stroke-opacity:1"
       id="rect5706-4-1-7"
       width="315"
       height="405"
       x="1035"
       y="489.86215" />
  </g>
</svg>
